<svg width="28" height="28" viewBox="0 0 28 28" fill="none" xmlns="http://www.w3.org/2000/svg">
<path d="M26.0742 12.7031H1.51562V15.7121H26.0742V12.7031Z" fill="#D67205"/>
<path d="M14 0C6.27027 0 0 6.27027 0 14C0 21.7297 6.27027 28 14 28C21.7297 28 28 21.7297 28 14C28 6.27027 21.7297 0 14 0ZM14 25.7477C7.53153 25.7477 2.27027 20.4865 2.27027 14.018C2.27027 7.54955 7.53153 2.28829 14 2.28829C20.4685 2.28829 25.7297 7.54955 25.7297 14.018C25.7297 20.4865 20.4685 25.7477 14 25.7477Z" fill="#FFB600"/>
<path d="M14.0907 0.774414C6.82939 0.774414 0.9375 6.7564 0.9375 14.0897C0.9375 21.4231 6.82939 27.4051 14.0907 27.4051C21.3519 27.4051 27.2438 21.4231 27.2438 14.0897C27.2438 6.7564 21.3339 0.774414 14.0907 0.774414ZM14.0907 26.8645C7.1357 26.8645 1.47804 21.1348 1.47804 14.0897C1.47804 7.04468 7.1357 1.31495 14.0907 1.31495C21.0456 1.31495 26.7033 7.04468 26.7033 14.0897C26.7033 21.1348 21.0456 26.8645 14.0907 26.8645Z" fill="#FFE100"/>
<path opacity="0.68" d="M5.82031 22.3422C7.92842 24.4143 10.8113 25.6936 14.0005 25.6936C17.5681 25.6936 20.7572 24.09 22.9014 21.5675V6.45035C20.7572 3.92783 17.5681 2.32422 14.0005 2.32422C10.8113 2.32422 7.92842 3.6035 5.82031 5.67557V22.3422Z" fill="#BF0930"/>
<path d="M14.0008 24.6123C8.163 24.6123 3.40625 19.8555 3.40625 14.0177C3.40625 8.17986 8.163 3.4231 14.0008 3.4231C19.8387 3.4231 24.5954 8.17986 24.5954 14.0177C24.6135 19.8555 19.8567 24.6123 14.0008 24.6123Z" fill="#FFB600"/>
<path d="M14.0025 22.9009C18.9183 22.9009 22.9034 18.9159 22.9034 14C22.9034 9.08419 18.9183 5.09912 14.0025 5.09912C9.08662 5.09912 5.10156 9.08419 5.10156 14C5.10156 18.9159 9.08662 22.9009 14.0025 22.9009Z" fill="#FFCF13"/>
<path opacity="0.71" d="M5.82228 13.9997C5.82228 9.20687 9.62408 5.29697 14.3628 5.09877C9.29975 4.90057 5.10156 8.95462 5.10156 13.9997C5.10156 19.0447 9.29975 23.0988 14.3628 22.9006C9.62408 22.7204 5.82228 18.7925 5.82228 13.9997Z" fill="#D67205"/>
<path d="M12.7907 19.3515V12.3425L11.2052 13.4236L9.60156 11.0992L13.4034 8.59473H15.9619V19.3515H12.7907Z" fill="#FFB600"/>
<path d="M13.5148 8.95459H15.6049V18.9906H13.1544V11.6573L11.2986 12.9366L10.1094 11.2068L13.5148 8.95459Z" fill="white"/>
<path d="M15.6054 10.378L14.1819 8.95459H13.9297L15.6054 10.6303V10.378Z" fill="white"/>
<path d="M15.605 12.2341L12.7942 9.42334L12.3438 9.72964L15.605 12.9909V12.2341Z" fill="white"/>
<path d="M15.6067 15.1888L13.1562 12.7563V13.2609L15.6067 15.7113V15.1888Z" fill="white"/>
<path d="M15.6067 16.5044L13.1562 14.054V14.5765L15.6067 17.0089V16.5044Z" fill="white"/>
<path d="M6.34172 7.72948C7.67505 6.07183 9.53091 4.8466 11.585 4.30606C11.8192 4.25201 11.9093 4.59435 11.6751 4.6484C9.69308 5.17092 7.90929 6.3421 6.63001 7.9457C6.46785 8.12588 6.19757 7.90966 6.34172 7.72948Z" fill="#FFF8C5"/>
<path d="M4.17897 14.2345C4.14294 12.757 4.41321 11.3516 4.93573 10.0904C5.02582 9.87414 5.35014 10.0183 5.26005 10.2345C4.07086 13.0814 4.84564 14.3967 4.35915 14.4147C4.25104 14.4147 4.17897 14.3246 4.17897 14.2345Z" fill="#FFF8C5"/>
<path d="M9.15138 22.577C6.89913 21.2797 5.2775 19.1896 4.55678 16.6851C4.48471 16.4508 4.82705 16.3607 4.89912 16.595C5.5838 18.9914 7.15138 21.0094 9.33156 22.2707C9.52976 22.3788 9.34958 22.7031 9.15138 22.577Z" fill="#FFF8C5"/>
<path d="M17.3686 23.189C17.2245 22.7746 18.2695 22.9908 20.2335 21.3692C20.4137 21.2251 20.6479 21.4953 20.4677 21.6395C19.6029 22.3422 18.6479 22.9007 17.6029 23.2791C17.5128 23.3332 17.4047 23.2971 17.3686 23.189Z" fill="#FFE100"/>
<path d="M22.9199 18.3249C22.4694 18.1086 23.7667 17.1717 23.7667 13.9465C23.7667 9.31584 20.4694 5.35188 15.9289 4.48701C15.6947 4.45098 15.7667 4.09062 16.001 4.14467C22.4875 5.3699 25.9289 12.4149 23.1541 18.2348C23.1181 18.3249 23.01 18.3609 22.9199 18.3249Z" fill="#FFE100"/>
</svg>
