<svg width="741" height="394" viewBox="0 0 741 394" fill="none" xmlns="http://www.w3.org/2000/svg">
<path d="M72.36 254.63V191.98C73.59 191.98 74.66 191.98 75.72 191.98C91.57 191.98 107.43 192.07 123.28 191.94C131.56 191.87 139.79 191.31 147.87 189.09C164.02 184.66 176.05 175.06 184.16 160.54C192.51 145.62 193.9 129.57 191.49 112.93C189.97 102.44 186.13 92.98 179.84 84.47C171.13 72.68 159.07 66.43 144.98 63.92C133.21 61.82 121.43 62.09 109.8 65.28C96.05 69.06 85.66 77.31 78.18 89.26C70.2 101.99 66.34 116.1 66.24 130.98C65.91 184.37 65.91 237.76 65.83 291.14C65.78 322.3 65.81 353.46 65.81 384.62C65.81 385.61 65.81 386.61 65.81 387.81H0.160029C0.110029 386.86 0.0300287 385.89 0.0300287 384.92C0.0300287 303.37 -0.0499713 221.83 0.0700287 140.28C0.100029 121.3 2.04003 102.54 7.97003 84.31C15.71 60.52 28.9 40.62 48.81 25.32C66.87 11.46 87.38 3.88999 109.93 1.23999C124.59 -0.480006 139.19 -0.400006 153.77 1.43999C177.71 4.46999 199.76 12.4 218.31 28.33C232.68 40.67 243.68 55.58 250.96 73.18C258.5 91.39 261.19 110.4 260.95 129.99C260.72 149.06 257.41 167.44 249.47 184.84C240.91 203.61 228.26 218.84 210.52 229.73C193.99 239.87 176.34 247.09 157.35 250.95C145.82 253.29 134.17 254.62 122.39 254.63C106.54 254.65 90.68 254.64 74.83 254.64C74.11 254.64 73.39 254.64 72.36 254.64V254.63Z" fill="white"/>
<path d="M467.42 250.17C467.64 228.45 472.63 205.97 484.25 185.32C488.38 177.98 493.3 170.97 498.68 164.49C507.59 153.74 517.7 144.13 529.45 136.41C543.38 127.26 558.52 121.08 574.86 117.84C588.53 115.12 602.3 114.47 616.17 115.66C638.28 117.55 658.57 124.72 677.15 136.77C697.12 149.73 712.7 166.77 723.88 187.77C732.13 203.26 737.25 219.71 739.3 237.19C741.28 254.02 740.46 270.67 736.71 287.12C732.13 307.27 723.47 325.58 710.61 341.84C691.4 366.13 666.7 381.99 636.72 389.42C619.52 393.68 602.05 394.33 584.43 391.97C561.07 388.85 540 380.11 521.37 365.89C499.46 349.16 484.11 327.51 475.07 301.39C469.54 285.39 467.01 268.96 467.41 250.17H467.42ZM531.19 254.81C531.25 256 531.34 257.82 531.41 259.64C532.05 275.49 535.83 290.4 544.96 303.6C552.11 313.93 561.33 321.87 573 326.72C587.32 332.67 602.21 333.93 617.44 331.57C639.85 328.1 656.35 316.26 667 296.29C673.15 284.76 675.86 272.36 676.42 259.36C677.27 239.77 673.85 221.27 662.63 204.82C654.11 192.33 642.73 183.48 628.05 179.15C615.43 175.43 602.63 174.85 589.69 176.89C567.01 180.47 550.67 192.87 540.09 213.01C533.33 225.87 531.32 239.85 531.17 254.81H531.19Z" fill="white"/>
<path d="M348.87 387.93H286.38C286.38 386.94 286.38 385.98 286.38 385.02C286.38 335.55 286.39 286.09 286.38 236.62C286.38 219.28 287.67 202.09 291.9 185.2C296.9 165.23 306.77 148.54 324.28 136.99C333.51 130.9 343.81 127.39 354.34 124.39C363.25 121.85 372.38 120.79 381.57 120.69C406.25 120.42 430.94 120.43 455.63 120.34C456.25 120.34 456.87 120.44 457.65 120.5V180.81C456.62 180.81 455.57 180.81 454.52 180.81C432.93 180.81 411.34 180.67 389.75 180.9C383.8 180.96 377.74 181.62 371.95 182.95C360.09 185.68 353.85 193.81 351.52 205.55C349.34 216.52 348.96 227.62 348.93 238.7C348.8 287.16 348.87 335.63 348.87 384.09C348.87 385.26 348.87 386.44 348.87 387.91V387.93Z" fill="white"/>
</svg>
