<svg width="167" height="72" viewBox="0 0 167 72" fill="none" xmlns="http://www.w3.org/2000/svg">
<path d="M0 58.609L3.67475 72.0001L88.1316 67.3911L166.547 40.1107L163.993 23.481L71.2527 41.2941L0 58.609Z" fill="#283A80"/>
<path d="M83.0246 39.052L71.3152 41.2942L0.0625 58.6091L3.67496 72.0001L88.1318 67.3911L88.6924 67.2043C86.0765 57.924 84.0834 48.5191 83.0246 39.052Z" fill="#2560B3"/>
<path d="M0 58.609L84.8306 53.1281L163.993 23.481L74.5537 25.8477L0 58.609Z" fill="#576CC1"/>
<path d="M31.5781 44.7201L114.353 42.3533L132.914 35.1907L48.893 37.0592L31.5781 44.7201Z" fill="#CB9044"/>
<path d="M114.164 42.291L118.711 56.9277L136.399 50.7616L132.911 35.1907L114.164 42.291Z" fill="#CB9044"/>
<path d="M29.2773 56.6164L50.7653 55.4953L120.025 24.6025L95.6719 25.4122L29.2773 56.6164Z" fill="#ECBD80"/>
<path d="M29.2773 56.6165L31.831 70.5058L53.0075 69.4469L50.7653 55.4954L29.2773 56.6165Z" fill="#CB9044"/>
<path d="M27.0316 36.5609C27.0316 36.5609 49.1423 57.1146 79.2254 38.6786C79.2254 38.6786 82.9002 33.3222 74.9279 36.4364C74.9279 36.4364 47.2738 43.6613 41.9797 30.7685C41.9174 30.7685 22.9209 23.7928 27.0316 36.5609Z" fill="#8E5D1E"/>
<path d="M80.7197 37.6817C80.7197 37.6817 65.5224 9.71631 32.2006 18.0001C32.2006 18.0001 22.6089 27.2803 26.5327 36.9966C26.5327 36.9966 50.1383 20.8651 74.429 35.0035C74.429 35.0035 80.782 40.7959 80.7197 37.6817Z" fill="#CB9044"/>
<path d="M128.055 15.2593C128.055 15.2593 114.104 43.1625 80.0346 37.8683C80.0346 37.8683 74.865 34.3182 83.3356 34.069C83.3356 34.069 111.488 29.896 112.235 15.7576C112.235 15.7576 127.682 1.74373 128.055 15.2593Z" fill="#8E5D1E"/>
<path d="M78.2891 37.5571C78.2891 37.5571 83.3341 5.48098 117.154 0C117.154 0 129.175 4.85814 128.614 15.4464C128.614 15.4464 101.272 9.77856 83.2718 32.5122C83.2718 32.5744 79.2233 40.4845 78.2891 37.5571Z" fill="#CB9044"/>
</svg>
