<svg width="196" height="102" viewBox="0 0 196 102" fill="none" xmlns="http://www.w3.org/2000/svg">
<path d="M32.8789 10.884L89.7048 0L159.762 10.884L101.85 45.4831L32.8789 10.884Z" fill="#193D73"/>
<path d="M89.7048 0L32.8789 10.884L90.6922 39.8913L89.7048 0Z" fill="#163563"/>
<path d="M32.875 11.3989L46.8343 101.642H146.122L159.688 11.3989L100.263 33.1784L32.875 11.3989Z" fill="#576CC1"/>
<path d="M100.221 32.9518L32.8789 11.1838L45.9128 102H99.8752L100.221 32.9518Z" fill="#283A80"/>
<path d="M121.945 24.9133L143.174 17.4243L130.831 102H118.637L121.945 24.9133Z" fill="#B67F39"/>
<path d="M121.945 24.9136C121.945 24.9136 146.631 70.5465 196.002 62.0589C196.002 62.0589 187.115 57.5655 181.684 53.5714C181.684 53.5714 188.843 53.5714 193.533 50.5758C193.533 50.5758 147.124 39.0927 143.175 17.3247L121.945 24.9136Z" fill="#B67F39"/>
<path d="M55.7891 18.8223L64.034 102H76.1792L74.55 24.6138L55.7891 18.8223Z" fill="#B67F39"/>
<path d="M55.7891 18.8223C55.7891 18.8223 29.6719 52.1233 11.8984 25.9118C11.8984 25.9118 9.13362 33.1013 15.0581 40.5903C15.0581 40.5903 11.4541 42.8869 0 33.8502C0 33.8502 20.2421 77.0367 74.5501 24.6138L55.7891 18.8223Z" fill="#B67F39"/>
</svg>
