<svg width="94" height="71" viewBox="0 0 94 71" fill="none" xmlns="http://www.w3.org/2000/svg">
<path d="M40.5123 2.28715C43.9448 -0.486477 49.1821 -0.852804 52.7744 1.82488C59.1343 6.55661 65.166 11.7288 71.5302 16.4605C75.6665 19.8534 79.8934 23.1373 84.1204 26.4212C87.16 29.2122 90.7393 31.3317 93.7573 34.1533C94.3834 34.7028 93.6408 35.4398 93.2911 35.9108C91.0589 38.4926 89.2411 41.4144 86.9182 43.9133C86.331 44.5282 85.5668 43.6517 85.0487 43.342C79.2199 38.5972 73.1709 34.1315 67.3766 29.3431C60.4943 24.197 53.9963 18.5495 47.0751 13.4558C35.0419 22.5486 23.3973 32.1472 11.5194 41.4406C10.2803 42.3608 9.15339 43.4859 7.74152 44.1357C6.96435 44.1227 6.62325 43.3115 6.1699 42.8144C4.14493 40.0495 1.86522 37.4721 0 34.5894C0.686503 33.8437 1.42051 33.1416 2.25813 32.5659C4.92642 30.7561 7.17591 28.4011 9.85716 26.6043C20.0036 18.4099 30.3745 10.4903 40.5123 2.28715Z" fill="#CA8E45"/>
<path d="M15.3754 3.24707C19.5765 3.23835 23.7775 3.20347 27.9786 3.26452C27.9699 4.62081 27.9527 5.97709 27.8577 7.33337C23.6221 10.4384 19.6801 13.9447 15.4013 16.9931C15.315 12.414 15.3711 7.83053 15.3754 3.24707Z" fill="#2E1F64"/>
<path d="M51.6538 38.9199C54.1925 35.5314 56.7227 32.1123 59.5162 28.9375C64.8873 33.4599 70.5089 37.6727 75.9318 42.1297C77.5855 43.6386 78.6821 45.8322 78.6778 48.1043C78.7124 52.3258 78.6821 56.5473 78.6908 60.7688C78.7728 64.5672 76.437 68.2741 73.0606 69.9139C71.4415 70.7468 69.5935 70.9649 67.8017 70.9998C53.8385 70.9867 39.8796 70.9911 25.9207 70.9954C21.6333 71.1175 17.3977 68.3788 15.9901 64.2402C15.1525 61.8678 15.377 59.3165 15.3598 56.8438C15.39 52.4915 15.3123 48.1392 15.3986 43.7869C19.5997 40.5946 23.6021 37.1319 27.8895 34.0661C27.9845 42.1209 27.8679 50.1802 27.9413 58.2394C40.687 58.2743 53.4326 58.3004 66.1783 58.2219C66.2258 55.7143 66.161 53.2024 66.2258 50.6948C61.5066 46.6085 56.4938 42.8623 51.6538 38.9199Z" fill="#2E1F64"/>
</svg>
