<svg width="442" height="265" viewBox="0 0 442 265" fill="none" xmlns="http://www.w3.org/2000/svg">
<mask id="mask0_181_1514" style="mask-type:luminance" maskUnits="userSpaceOnUse" x="0" y="0" width="442" height="265">
<path d="M442 0H0V265H442V0Z" fill="white"/>
</mask>
<g mask="url(#mask0_181_1514)">
<path d="M339.058 204.923C338.13 196.39 337.113 187.83 337.157 179.271C336.583 172.725 336.936 166.18 336.76 159.634C336.892 156.666 333.135 154.732 330.041 152.691C330.041 152.585 330.041 152.479 329.997 152.347C329.776 151.393 329.422 150.28 329.157 149.299C328.892 148.186 328.627 147.1 328.494 145.987C328.406 145.377 328.494 144.768 328.096 144.185C327.433 143.204 325.002 143.098 324.118 144.052C323.632 144.582 323.765 145.192 323.588 145.775C323.5 146.305 323.5 146.861 323.455 147.391C321.378 145.775 319.345 144.158 317.709 142.356C316.162 140.475 315.234 138.408 313.952 136.473C309.798 132.631 304.582 139.892 302.284 141.667C298.703 144.609 295.167 147.577 292.648 150.942C290.968 153.221 287.609 154.838 285.664 157.011C285.046 158.124 284.692 159.475 285.134 160.641C284.78 172.434 285.443 184.253 285.311 196.045C285.62 200.736 284.559 205.506 285.974 210.117C286.681 212.396 290.88 212.396 294.107 212.396C294.504 212.396 294.902 212.396 295.256 212.396C300.206 212.263 305.112 212.263 310.063 212.263C315.941 212.263 321.776 212.29 327.61 212.051C338.483 211.733 339.721 211.68 339.058 204.923ZM334.55 208.951C329.467 209.401 324.295 209.56 319.168 209.587C319.124 207.679 318.814 205.771 318.461 203.889C318.372 202.564 318.372 201.213 318.372 199.888C318.417 198.722 318.151 196.814 315.499 196.973C313.245 197.079 310.991 197.37 308.825 197.847C305.687 198.271 304.803 198.695 305.112 200.709C305.201 203.492 305.157 206.274 305.687 209.03C305.731 209.216 305.731 209.401 305.731 209.56C302.416 209.56 299.101 209.587 295.83 209.693C295.565 209.693 295.3 209.693 295.035 209.693C294.858 209.693 294.681 209.693 294.46 209.693C293.046 209.693 291.587 209.693 290.217 209.507C289.289 207.175 289.775 204.764 289.687 202.379C289.687 197.582 289.687 192.812 289.687 188.016C289.598 178.105 289.245 168.167 289.554 158.283C290.173 157.117 292.029 156.375 293.09 155.341C295.433 153.539 297.112 151.525 298.748 149.485C300.383 147.471 302.858 145.748 304.98 143.92C306.969 142.25 308.604 140.395 310.637 138.752C311.963 141.164 313.422 143.575 315.853 145.669C319.124 148.345 322.483 151.022 325.665 153.751C327.743 155.288 330.616 156.56 331.986 158.415C332.914 163.053 332.074 167.823 332.384 172.487C332.605 177.23 332.782 181.947 332.914 186.691C333.312 191.54 333.754 196.363 334.152 201.213C334.55 203.783 335.08 206.38 334.55 208.951Z" fill="white" fill-opacity="0.02"/>
<path d="M164.071 31.8824C163.231 25.4959 163.143 19.0829 162.745 12.6699C162.524 5.85944 162.612 6.41594 155.187 1.48694C153.949 0.585937 152.8 -0.368063 151.474 -1.18956C149.618 -2.38206 147.275 -3.20356 145.463 -4.42256C143.076 -5.95956 141.485 -8.90106 137.728 -9.35156C133.485 -9.32506 130.656 -2.54106 128.711 -0.474063C124.379 4.05744 119.959 8.93344 120.932 14.3394C121.727 24.3564 121.197 34.3999 121.33 44.4169C121.374 46.6694 121.197 48.9219 121.551 51.1479C121.595 54.3809 126.103 55.0699 130.612 55.0169C130.921 55.0169 131.23 55.0169 131.54 55.0169C134.369 55.0169 137.197 54.7519 139.982 54.4339C142.943 54.1954 145.949 54.2484 148.91 54.0894C152.314 53.9834 155.717 54.0364 159.121 53.7714C159.695 53.7184 160.314 53.7449 160.933 53.7449C162.612 53.7714 164.336 53.7714 165.397 52.8969C167.474 50.5384 166.767 47.6234 167.032 45.0264C167.519 40.5479 164.734 36.2814 164.071 31.8824ZM161.994 51.0949C154.656 51.3334 147.319 51.4394 140.026 51.7839C136.976 52.0754 133.927 52.4729 130.833 52.3934C129.374 52.2874 127.252 52.5789 126.192 51.8369C125.705 50.4589 125.794 49.0014 125.794 47.5969C125.794 41.7934 125.794 35.9634 125.794 30.1599C125.794 25.8669 125.882 21.5474 125.617 17.2544C125.175 13.2529 125.352 9.11894 128.446 5.46194C129.904 3.84544 131.584 2.25544 132.91 0.585937C134.634 -1.64006 135.96 -3.99856 137.949 -6.14506C139.363 -5.16456 140.38 -3.99856 141.75 -2.99156C143.297 -1.77256 145.419 -0.898064 147.363 0.0824366C149.397 1.16894 150.899 2.54694 152.667 3.76594C154.17 4.87894 156.027 5.85944 157.397 7.02544C158.59 8.72144 158.192 10.7354 158.413 12.5639C158.458 14.7369 158.59 16.9364 158.811 19.1094C159.032 24.1974 159.032 29.3119 160.27 34.3734C160.933 37.0499 162.215 39.6469 162.701 42.3234C162.568 45.2119 162.878 48.2064 161.994 51.0949Z" fill="white" fill-opacity="0.02"/>
<path d="M149.707 42.536C149.707 42.5625 149.707 42.589 149.707 42.589C149.707 42.589 149.707 42.589 149.707 42.5625C149.663 42.324 149.574 42.0855 149.53 41.847C149.442 41.6085 149.398 41.3435 149.353 41.105C149.265 40.6015 149.221 40.098 149.177 39.621C149.177 39.4885 149.177 39.3825 149.177 39.25C149.088 39.25 148.956 39.2765 148.867 39.2765C148.602 39.303 148.381 39.3295 148.116 39.356C147.939 39.3825 147.718 39.409 147.541 39.409H147.585C147.188 39.4355 146.746 39.4885 146.348 39.515H146.392C145.906 39.568 145.464 39.5945 144.978 39.6475C145.154 42.165 145.95 44.815 149.928 44.868C149.972 44.868 150.061 44.868 150.105 44.868C150.193 44.868 150.282 44.868 150.37 44.868C150.326 44.709 150.282 44.55 150.193 44.391C150.016 43.808 149.84 43.172 149.707 42.536Z" fill="white" fill-opacity="0.02"/>
<path d="M146.081 38.6125C146.479 38.586 146.877 38.533 147.275 38.5065C147.452 38.48 147.628 38.48 147.805 38.4535C147.849 38.4535 147.894 38.4535 147.938 38.427C148.07 38.4005 148.247 38.4005 148.38 38.374C148.645 38.3475 148.866 38.321 149.131 38.2945C149.131 38.2415 149.131 38.162 149.131 38.109C149.087 37.6055 149.087 37.102 149.043 36.625C148.999 36.095 148.999 35.565 148.91 35.035C148.866 34.5315 148.778 34.0545 148.689 33.551C148.645 33.3655 148.601 33.2065 148.557 33.021C148.512 32.8355 148.424 32.6765 148.38 32.491C148.38 32.438 148.336 32.385 148.336 32.332C147.894 32.332 147.496 32.3585 147.054 32.438C144.313 32.9415 145.065 34.9555 144.844 36.2805C144.932 36.9165 144.888 37.7645 144.932 38.7185C145.33 38.6655 145.772 38.639 146.17 38.6125C146.126 38.6125 146.126 38.6125 146.081 38.6125Z" fill="white" fill-opacity="0.02"/>
<path d="M154.965 38.668C154.523 38.668 154.125 38.6945 153.728 38.721C153.462 38.7475 153.197 38.774 152.976 38.827C152.667 38.88 152.357 38.933 152.004 38.986C151.739 39.0125 151.518 39.039 151.252 39.0655C151.252 39.0655 151.252 39.0655 151.208 39.0655C151.031 39.092 150.855 39.092 150.678 39.1185C150.678 39.2775 150.678 39.41 150.722 39.569C150.766 39.887 150.766 40.2315 150.81 40.5495C150.855 40.8675 150.899 41.1855 150.987 41.5035C151.031 41.742 151.12 41.9805 151.164 42.2455C151.208 42.484 151.297 42.696 151.341 42.9345C151.341 42.908 151.341 42.8815 151.341 42.8815V42.908C151.341 42.961 151.385 42.9875 151.385 43.0405C151.385 43.067 151.385 43.12 151.429 43.1465C151.606 43.703 151.739 44.2595 151.96 44.816V44.8425C154.081 44.657 156.247 44.1535 156.556 42.802C156.512 41.424 156.026 40.046 155.628 38.6945C155.407 38.668 155.186 38.668 154.965 38.668Z" fill="white" fill-opacity="0.02"/>
<path d="M150.987 38.1362C151.208 38.1097 151.429 38.0832 151.606 38.0567C151.694 38.0567 151.827 38.0302 151.915 38.0037C152.004 37.9772 152.136 37.9772 152.225 37.9507C152.667 37.8712 153.153 37.8182 153.639 37.7652C154.081 37.7387 154.567 37.7122 155.009 37.7122C155.098 37.7122 155.23 37.7122 155.319 37.7122C155.142 36.6257 155.054 35.5127 155.054 34.3997C155.23 33.5517 154.169 32.9952 153.02 32.5977C152.048 32.3062 150.899 32.3592 149.838 32.3592C149.882 32.4917 149.926 32.5977 149.971 32.7302C150.015 32.8362 150.015 32.9422 150.059 33.0217C150.103 33.1542 150.147 33.2867 150.192 33.4192C150.236 33.5517 150.236 33.6842 150.28 33.8167C150.324 34.0817 150.368 34.3202 150.413 34.5852C150.545 35.5657 150.589 36.5462 150.634 37.5532C150.634 37.7387 150.634 37.9507 150.678 38.1362C150.766 38.1362 150.854 38.1097 150.943 38.1097C150.943 38.1362 150.987 38.1362 150.987 38.1362Z" fill="white" fill-opacity="0.02"/>
<path d="M139.274 20.8049C138.832 20.8049 138.434 20.8314 137.992 20.8314C137.771 20.8314 137.594 20.8314 137.373 20.8314C137.108 20.8314 136.843 20.8314 136.578 20.8314C136.18 20.8314 135.782 20.8314 135.384 20.8314C135.34 20.8314 135.34 20.8314 135.296 20.8314C135.296 20.8579 135.296 20.8844 135.296 20.9109C135.34 21.2819 135.384 21.6794 135.429 22.0504C135.473 22.5539 135.561 23.0309 135.605 23.5344C135.65 23.9319 135.738 24.3294 135.826 24.7269C135.871 24.8594 135.871 25.0184 135.871 25.1509C135.915 25.4159 135.959 25.6809 135.959 25.9724C136.003 26.3964 136.047 26.8204 136.092 27.2444C136.092 27.4299 136.136 27.5889 136.18 27.7744C136.224 27.7744 136.313 27.7744 136.357 27.7744C142.059 27.7744 140.114 23.4284 139.893 20.8049C139.76 20.8049 139.539 20.8049 139.274 20.8049Z" fill="white" fill-opacity="0.02"/>
<path d="M134.501 25.92C134.501 25.814 134.457 25.708 134.457 25.602V25.5755C134.413 25.337 134.413 25.0985 134.368 24.86C134.324 24.595 134.28 24.3565 134.236 24.0915C134.192 23.853 134.147 23.6145 134.147 23.3495C134.015 22.5015 133.926 21.6535 133.838 20.832C133.661 20.832 133.484 20.832 133.352 20.8585C133.263 20.8585 133.175 20.8585 133.087 20.8585C133.042 20.8585 132.998 20.8585 132.998 20.8585C132.645 20.885 132.291 20.9115 131.937 20.938C131.451 20.991 131.009 21.044 130.523 21.097C130.435 21.097 130.346 21.1235 130.258 21.1235C130.302 22.051 130.302 22.952 130.346 23.8795C130.214 26.185 130.611 27.5365 134.766 27.722C134.678 27.2715 134.678 26.7945 134.634 26.344C134.545 26.185 134.545 26.0525 134.501 25.92Z" fill="white" fill-opacity="0.02"/>
<path d="M131.451 20.0387C131.761 20.0122 132.07 19.9857 132.379 19.9592C132.6 19.9327 132.777 19.9327 132.998 19.9327C133.042 19.9327 133.131 19.9327 133.175 19.9327C133.352 19.9327 133.529 19.9327 133.705 19.9327C133.661 19.6147 133.617 19.2967 133.529 18.9522C133.44 18.4752 133.396 17.9982 133.396 17.5477C133.352 17.0707 133.263 16.5937 133.219 16.0902C133.131 15.5867 133.042 15.0832 132.998 14.5797C132.954 14.3412 132.954 14.0762 132.91 13.8377C132.91 13.5992 132.866 13.3342 132.866 13.0957C132.866 13.0427 132.866 12.9632 132.866 12.9102C131.319 13.0162 129.948 13.4402 129.374 14.3942C128.711 15.9842 129.639 17.6272 129.904 19.2172C129.993 19.5352 130.037 19.8797 130.081 20.1977C130.125 20.1977 130.169 20.1977 130.169 20.1977C130.611 20.1447 131.009 20.0917 131.451 20.0387Z" fill="white" fill-opacity="0.02"/>
<path d="M137.197 19.9327C137.241 19.9327 137.285 19.9327 137.33 19.9327C137.86 19.9327 138.39 19.9062 138.877 19.9062C139.23 19.9062 139.54 19.9062 139.893 19.9062C139.761 18.7402 139.761 17.5742 139.451 16.4347C139.451 15.2422 139.23 13.9702 137.241 13.3872C136.401 13.1487 135.385 12.9632 134.368 12.9102C134.368 13.0162 134.368 13.0957 134.368 13.2017C134.368 13.3607 134.368 13.5462 134.412 13.7052C134.412 13.8112 134.412 13.9172 134.412 14.0232C134.412 14.2617 134.457 14.5002 134.501 14.7387C134.633 15.7192 134.854 16.6997 134.899 17.6802C134.899 17.8127 134.899 17.9452 134.943 18.1042C134.943 18.1042 134.943 18.1042 134.943 18.1307C134.943 18.2367 134.943 18.3427 134.987 18.4487C135.031 18.6872 135.075 18.9522 135.12 19.1907C135.164 19.4292 135.208 19.6942 135.252 19.9327C135.473 19.9327 135.738 19.9327 135.959 19.9327C136.401 19.9327 136.799 19.9327 137.197 19.9327Z" fill="white" fill-opacity="0.02"/>
<path d="M351.302 87.5856C350.463 81.1991 350.374 74.7861 349.976 68.3731C349.755 61.5626 349.844 62.1191 342.418 57.1901C341.181 56.2891 340.031 55.3351 338.705 54.5136C336.849 53.3211 334.506 52.4996 332.694 51.2806C330.307 49.7436 328.716 46.8021 324.959 46.3516C320.716 46.3781 317.887 53.1621 315.942 55.2291C311.611 59.7606 307.191 64.6366 308.163 70.0426C308.959 80.0596 308.428 90.1031 308.561 100.12C308.605 102.373 308.428 104.625 308.782 106.851C308.826 110.084 313.335 110.773 317.843 110.72C318.152 110.72 318.462 110.72 318.771 110.72C321.6 110.72 324.429 110.455 327.213 110.137C330.175 109.899 333.18 109.952 336.142 109.793C339.545 109.687 342.949 109.74 346.352 109.475C346.927 109.422 347.545 109.448 348.164 109.448C349.844 109.475 351.568 109.475 352.628 108.6C354.706 106.242 353.999 103.327 354.264 100.73C354.75 96.2511 351.965 92.0111 351.302 87.5856ZM349.225 106.798C341.888 107.037 334.551 107.143 327.258 107.487C324.208 107.779 321.158 108.176 318.064 108.097C316.605 107.991 314.484 108.282 313.423 107.54C312.937 106.162 313.025 104.705 313.025 103.3C313.025 97.4966 313.025 91.6666 313.025 85.8631C313.025 81.5701 313.114 77.2506 312.848 72.9576C312.406 68.9561 312.583 64.8221 315.677 61.1651C317.136 59.5486 318.815 57.9586 320.141 56.2891C321.865 54.0631 323.191 51.7046 325.18 49.5581C326.595 50.5386 327.611 51.7046 328.981 52.7116C330.528 53.9306 332.65 54.8051 334.595 55.7856C336.628 56.8721 338.131 58.2501 339.899 59.4691C341.402 60.5821 343.258 61.5626 344.628 62.7286C345.822 64.4246 345.424 66.4386 345.645 68.2671C345.689 70.4401 345.822 72.6396 346.043 74.8126C346.264 79.9006 346.264 85.0151 347.501 90.0766C348.164 92.7531 349.446 95.3501 349.932 98.0266C349.844 100.915 350.153 103.91 349.225 106.798Z" fill="white" fill-opacity="0.02"/>
<path d="M336.936 98.2391C336.936 98.2656 336.936 98.2921 336.936 98.2921C336.936 98.2921 336.936 98.2921 336.936 98.2656C336.892 98.0271 336.804 97.7886 336.76 97.5501C336.671 97.3116 336.627 97.0466 336.583 96.8081C336.494 96.3046 336.45 95.8011 336.406 95.3241C336.406 95.1916 336.406 95.0856 336.406 94.9531C336.318 94.9531 336.185 94.9796 336.097 94.9796C335.831 95.0061 335.61 95.0326 335.345 95.0591C335.168 95.0856 334.947 95.1121 334.771 95.1121H334.815C334.417 95.1386 333.975 95.1916 333.577 95.2181H333.621C333.135 95.2711 332.693 95.2976 332.207 95.3506C332.384 97.8681 333.179 100.518 337.157 100.571C337.202 100.571 337.29 100.571 337.334 100.571C337.423 100.571 337.511 100.571 337.599 100.571C337.555 100.412 337.511 100.253 337.423 100.094C337.246 99.5111 337.069 98.8751 336.936 98.2391Z" fill="white" fill-opacity="0.02"/>
<path d="M333.312 94.3157C333.71 94.2892 334.107 94.2362 334.505 94.2097C334.682 94.1832 334.859 94.1831 335.036 94.1566C335.08 94.1566 335.124 94.1567 335.168 94.1302C335.301 94.1037 335.478 94.1037 335.61 94.0772C335.875 94.0507 336.096 94.0242 336.362 93.9977C336.362 93.9447 336.362 93.8652 336.362 93.8122C336.317 93.3087 336.317 92.8052 336.273 92.3282C336.229 91.7982 336.229 91.2682 336.141 90.7382C336.096 90.2347 336.008 89.7576 335.92 89.2541C335.875 89.0686 335.831 88.9096 335.787 88.7241C335.743 88.5386 335.654 88.3796 335.61 88.1941C335.61 88.1411 335.566 88.0882 335.566 88.0352C335.124 88.0352 334.726 88.0617 334.284 88.1412C331.544 88.6447 332.295 90.6587 332.074 91.9837C332.163 92.6197 332.118 93.4676 332.163 94.4216C332.56 94.3686 333.002 94.3422 333.4 94.3157C333.4 94.3157 333.356 94.3157 333.312 94.3157Z" fill="white" fill-opacity="0.02"/>
<path d="M342.197 94.3711C341.755 94.3711 341.357 94.3976 340.959 94.4241C340.694 94.4506 340.429 94.4771 340.208 94.5301C339.898 94.5831 339.589 94.6361 339.235 94.6891C338.97 94.7156 338.749 94.7421 338.484 94.7686C338.484 94.7686 338.484 94.7686 338.44 94.7686C338.263 94.7951 338.086 94.7951 337.909 94.8216C337.909 94.9806 337.909 95.1131 337.953 95.2721C337.998 95.5901 337.998 95.9346 338.042 96.2526C338.086 96.5706 338.13 96.8886 338.219 97.2066C338.263 97.4451 338.351 97.6836 338.395 97.9486C338.44 98.1871 338.528 98.3991 338.572 98.6376C338.572 98.6111 338.572 98.5846 338.572 98.5846V98.6111C338.572 98.6641 338.616 98.6906 338.616 98.7436C338.616 98.7701 338.616 98.8231 338.661 98.8496C338.837 99.4061 338.97 99.9626 339.191 100.519V100.546C341.313 100.36 343.478 99.8566 343.788 98.5051C343.744 97.1271 343.257 95.7491 342.86 94.3976C342.639 94.3711 342.418 94.3711 342.197 94.3711Z" fill="white" fill-opacity="0.02"/>
<path d="M338.219 93.8394C338.44 93.8129 338.661 93.7864 338.837 93.7599C338.926 93.7599 339.058 93.7334 339.147 93.7069C339.235 93.6804 339.368 93.6804 339.456 93.6539C339.898 93.5744 340.384 93.5214 340.871 93.4684C341.313 93.4419 341.799 93.4154 342.241 93.4154C342.329 93.4154 342.462 93.4154 342.55 93.4154C342.373 92.3289 342.285 91.2159 342.285 90.1029C342.462 89.2549 341.401 88.6984 340.252 88.3009C339.279 88.0094 338.13 88.0624 337.069 88.0624C337.114 88.1949 337.158 88.3009 337.202 88.4334C337.246 88.5394 337.246 88.6454 337.29 88.7249C337.335 88.8574 337.379 88.9899 337.423 89.1224C337.467 89.2549 337.467 89.3874 337.511 89.5199C337.556 89.7849 337.6 90.0234 337.644 90.2884C337.777 91.2689 337.821 92.2494 337.865 93.2564C337.865 93.4419 337.865 93.6539 337.909 93.8394C337.998 93.8394 338.086 93.8129 338.174 93.8129C338.174 93.8394 338.219 93.8394 338.219 93.8394Z" fill="white" fill-opacity="0.02"/>
<path d="M326.505 76.5081C326.063 76.5081 325.666 76.5346 325.224 76.5346C325.003 76.5346 324.826 76.5346 324.605 76.5346C324.34 76.5346 324.074 76.5346 323.809 76.5346C323.411 76.5346 323.014 76.5346 322.616 76.5346C322.572 76.5346 322.572 76.5346 322.527 76.5346C322.527 76.5611 322.527 76.5876 322.527 76.6141C322.572 76.9851 322.616 77.3826 322.66 77.7536C322.704 78.2571 322.793 78.7341 322.837 79.2376C322.881 79.6351 322.969 80.0326 323.058 80.4301C323.102 80.5626 323.102 80.7216 323.102 80.8541C323.146 81.1191 323.19 81.3841 323.19 81.6756C323.235 82.0996 323.279 82.5236 323.323 82.9476C323.323 83.1331 323.367 83.2921 323.411 83.4776C323.456 83.4776 323.544 83.4776 323.588 83.4776C329.29 83.4776 327.345 79.1316 327.124 76.5081C326.992 76.5081 326.771 76.5081 326.505 76.5081Z" fill="white" fill-opacity="0.02"/>
<path d="M321.776 81.6232C321.776 81.5172 321.732 81.4112 321.732 81.3052V81.2787C321.688 81.0402 321.688 80.8017 321.644 80.5632C321.6 80.2982 321.555 80.0597 321.511 79.7947C321.467 79.5562 321.423 79.3177 321.423 79.0527C321.29 78.2047 321.202 77.3567 321.113 76.5352C320.937 76.5352 320.76 76.5352 320.627 76.5617C320.539 76.5617 320.45 76.5617 320.362 76.5617C320.318 76.5617 320.274 76.5617 320.274 76.5617C319.92 76.5882 319.566 76.6147 319.213 76.6412C318.727 76.6942 318.285 76.7472 317.798 76.8002C317.71 76.8002 317.622 76.8267 317.533 76.8267C317.577 77.7542 317.577 78.6552 317.622 79.5827C317.489 81.8882 317.887 83.2397 322.042 83.4252C321.953 82.9747 321.953 82.4977 321.909 82.0472C321.776 81.8882 321.776 81.7557 321.776 81.6232Z" fill="white" fill-opacity="0.02"/>
<path d="M318.682 75.7652C318.991 75.7387 319.3 75.7122 319.61 75.6857C319.831 75.6592 320.008 75.6592 320.229 75.6592C320.273 75.6592 320.361 75.6592 320.405 75.6592C320.582 75.6592 320.759 75.6592 320.936 75.6592C320.892 75.3412 320.847 75.0232 320.759 74.6787C320.671 74.2017 320.626 73.7247 320.626 73.2742C320.582 72.7972 320.494 72.3202 320.45 71.8167C320.361 71.3132 320.273 70.8097 320.229 70.3062C320.184 70.0677 320.184 69.8027 320.14 69.5642C320.14 69.3257 320.096 69.0607 320.096 68.8222C320.096 68.7692 320.096 68.6897 320.096 68.6367C318.549 68.7427 317.179 69.1667 316.604 70.1207C315.941 71.7107 316.869 73.3537 317.135 74.9437C317.223 75.2617 317.267 75.6062 317.311 75.9242C317.356 75.9242 317.4 75.9242 317.4 75.9242C317.842 75.8447 318.24 75.7917 318.682 75.7652Z" fill="white" fill-opacity="0.02"/>
<path d="M324.472 75.6358C324.517 75.6358 324.561 75.6358 324.605 75.6358C325.135 75.6358 325.666 75.6093 326.152 75.6093C326.506 75.6093 326.815 75.6093 327.169 75.6093C327.036 74.4433 327.036 73.2773 326.727 72.1378C326.727 70.9453 326.506 69.6733 324.517 69.0903C323.677 68.8518 322.66 68.6663 321.644 68.6133C321.644 68.7193 321.644 68.7988 321.644 68.9048C321.644 69.0638 321.644 69.2493 321.688 69.4083C321.688 69.5143 321.688 69.6203 321.688 69.7263C321.688 69.9648 321.732 70.2033 321.776 70.4418C321.909 71.4223 322.13 72.4028 322.174 73.3833C322.174 73.5158 322.174 73.6483 322.218 73.8073C322.218 73.8073 322.218 73.8073 322.218 73.8338C322.218 73.9398 322.218 74.0458 322.262 74.1518C322.307 74.3903 322.351 74.6553 322.395 74.8938C322.439 75.1323 322.483 75.3973 322.528 75.6358C322.749 75.6358 323.014 75.6358 323.235 75.6358C323.633 75.6358 324.03 75.6358 324.472 75.6358Z" fill="white" fill-opacity="0.02"/>
<path d="M249.906 78.6807C249.685 76.9847 247.829 75.5007 246.812 73.9637C245.884 72.8242 244.779 71.7377 243.497 70.7572C241.818 69.4322 239.608 68.3457 238.017 66.9677C236.028 65.2982 234.923 63.3637 233.641 61.5087C231.475 58.5937 228.072 56.1557 224.889 53.6382C221.397 50.4847 218.215 51.2797 214.016 53.3202C209.331 55.0692 206.856 58.0637 203.364 60.5017C201.11 61.9062 198.811 63.3107 196.866 64.8742C196.822 64.4237 196.778 63.9997 196.734 63.5492C196.469 62.2772 196.734 60.7932 195.717 59.6272C195.231 59.0442 193.905 58.8322 192.933 59.0707C191.607 59.3622 191.386 60.2102 191.076 60.9522C189.839 63.7877 190.192 66.7557 190.148 69.6442C190.148 70.1212 190.148 70.5982 190.148 71.0752C188.071 72.6652 185.772 74.2022 184.004 75.9247C181.927 78.1507 182.678 80.7742 182.501 83.2122C182.59 87.2137 182.943 91.2152 183.209 95.2167C183.209 98.4762 184.181 101.656 183.651 104.916C183.518 112.389 182.678 119.915 182.943 127.414C181.971 135.868 181.883 144.321 182.015 152.775C182.413 156.909 179.938 162.5 187.408 164.832C190.457 165.495 193.728 165.442 196.955 165.389C199.165 165.362 201.375 165.309 203.541 165.521C208.756 166.528 214.237 166.502 219.718 166.449C221.618 166.422 223.519 166.422 225.375 166.449C228.293 166.449 231.21 166.475 234.127 166.502C237.486 166.528 240.845 166.581 244.249 166.555C244.47 166.581 244.647 166.581 244.868 166.581C249.641 166.581 248.801 162.58 249.067 160.46C249.155 154.391 249.111 148.349 249.111 142.281C249.288 132.078 248.757 121.902 249.376 111.7C250.569 100.676 249.597 89.6517 249.906 78.6807ZM233.155 129.455C233.376 129.455 233.641 129.455 233.862 129.455C234.171 129.455 234.481 129.481 234.79 129.534C235.276 129.587 235.762 129.72 236.204 129.852C236.602 129.985 236.912 130.17 237.177 130.382C237.398 130.594 237.53 130.806 237.575 131.045C237.575 131.124 237.619 131.204 237.619 131.283C237.619 131.469 237.663 131.628 237.619 131.813C237.619 132.078 237.575 132.37 237.53 132.635C237.442 133.032 237.354 133.43 237.265 133.827C237.265 133.88 237.221 133.933 237.221 133.986C237.221 134.516 237.221 135.046 237.221 135.576C237.221 137.007 237.221 138.438 237.221 139.869C237.221 141.115 237.221 142.387 237.221 143.632C237.044 143.632 236.867 143.606 236.735 143.606C234.127 143.659 231.608 143.182 229.044 143.129C227.718 143.155 226.436 143.102 225.11 143.049C225.066 138.571 225.066 134.119 225.022 129.64C225.552 129.587 226.038 129.534 226.569 129.508C227.762 129.428 229 129.428 230.193 129.428C231.166 129.455 232.182 129.455 233.155 129.455ZM220.734 142.89C219.806 142.864 218.834 142.864 217.906 142.864C217.331 142.864 216.801 142.864 216.226 142.864C214.237 142.811 212.248 142.625 210.215 142.599C210.082 142.599 209.95 142.599 209.817 142.599C209.817 140.293 209.817 137.961 209.817 135.656C209.817 134.993 209.817 134.304 209.817 133.642C209.817 133.271 209.861 132.9 209.95 132.529C209.994 132.317 210.082 132.131 210.126 131.946C210.215 131.76 210.303 131.548 210.48 131.389C210.657 131.204 210.878 131.045 211.099 130.886C211.585 130.594 212.204 130.409 212.823 130.223C213.486 130.038 214.237 129.932 214.944 129.879C215.563 129.852 216.182 129.826 216.801 129.826C217.95 129.826 219.055 129.826 220.204 129.826C220.646 129.826 221.132 129.826 221.574 129.826C221.751 134.198 221.663 138.571 221.663 142.943C221.397 142.917 221.088 142.89 220.734 142.89ZM221.442 98.4232C221.442 98.5557 221.486 98.6617 221.486 98.7942C221.53 99.3242 221.574 99.8807 221.618 100.411C221.663 100.755 221.707 101.126 221.795 101.471C221.884 101.815 221.972 102.16 222.016 102.504C222.06 102.875 222.149 103.22 222.193 103.591C222.281 103.909 222.37 104.253 222.414 104.571C222.458 104.757 222.458 104.969 222.502 105.154C222.547 105.34 222.547 105.552 222.547 105.737C222.591 106.082 222.591 106.453 222.591 106.797C222.635 107.513 222.635 108.202 222.591 108.917C222.591 109.103 222.547 109.315 222.547 109.5C222.502 109.818 222.414 110.136 222.326 110.454C222.193 110.772 221.972 111.09 221.751 111.408C221.53 111.7 221.309 111.938 220.911 112.15C220.734 112.23 220.602 112.336 220.381 112.389C220.16 112.468 219.939 112.521 219.674 112.574C219.408 112.627 219.143 112.68 218.834 112.707C218.303 112.786 217.729 112.866 217.198 112.892C216.889 112.892 216.624 112.919 216.314 112.919C216.049 112.919 215.784 112.919 215.519 112.919C214.9 112.919 214.325 112.919 213.707 112.866C212.557 112.813 211.452 112.707 210.303 112.654C209.773 112.654 209.242 112.627 208.712 112.627C208.624 112.15 208.535 111.7 208.447 111.223C208.314 110.269 208.005 109.315 207.872 108.334C207.828 107.062 207.828 105.79 207.828 104.545C207.872 102.478 207.784 100.437 207.828 98.3702C208.403 98.3702 209.021 98.3967 209.596 98.4232C211.408 98.4232 213.22 98.4232 215.033 98.4232C215.298 98.4232 215.519 98.4232 215.784 98.4232C217.154 98.4232 218.48 98.4232 219.85 98.4232C220.425 98.4232 220.911 98.4232 221.442 98.4232ZM211.01 82.7352C211.85 82.7352 212.69 82.7352 213.53 82.7617C214.06 82.7617 214.591 82.7882 215.121 82.8147C215.696 82.8412 216.27 82.8942 216.845 82.9737C217.331 83.0267 217.906 83.1062 218.348 83.2652C218.834 83.4507 219.232 83.6627 219.585 83.9277C219.895 84.1397 220.071 84.4047 220.204 84.6697C220.292 84.8552 220.292 85.0672 220.292 85.2527C220.292 85.7562 220.292 86.2597 220.337 86.7367C220.381 87.1607 220.469 87.5582 220.469 87.9822C220.469 88.3797 220.469 88.8037 220.513 89.2277C220.513 89.5987 220.513 89.9962 220.513 90.3672C220.513 90.7647 220.558 91.1622 220.602 91.5597C220.69 91.9572 220.779 92.3282 220.823 92.7257C220.867 93.0967 220.911 93.4942 220.955 93.8652V93.8387C221.044 94.3952 221.132 94.9517 221.176 95.5082C221.221 95.7997 221.221 96.0912 221.221 96.3827C221.221 96.4092 221.221 96.4357 221.221 96.4622C216.801 96.4622 212.381 96.4622 207.961 96.4092C207.961 96.3297 207.961 96.2237 207.961 96.1442C208.491 93.8122 208.668 91.4537 208.403 89.0952C208.226 87.7702 208.137 86.4187 207.872 85.0937C207.74 84.4577 207.253 83.8747 207.209 83.2387C207.209 83.0797 207.165 82.9207 207.165 82.7617C207.209 82.7617 207.209 82.7617 207.253 82.7617C208.535 82.7352 209.773 82.7352 211.01 82.7352ZM200.402 82.8147C201.507 82.8147 202.657 82.8147 203.762 82.8147C203.806 82.8147 203.806 82.8147 203.85 82.8147C203.894 83.6362 204.115 84.4312 204.557 85.2262C204.778 85.8887 204.734 86.5512 204.822 87.2402C205.176 89.2012 205.22 91.1622 205.088 93.1232C204.911 94.2097 204.69 95.2962 204.601 96.3827C201.065 96.3562 197.529 96.3032 194.038 96.2767C193.684 96.2502 193.375 96.2237 193.021 96.1972C193.021 95.5612 192.977 94.9252 192.977 94.2892C192.977 93.5207 192.977 92.7787 192.977 92.0102C192.977 91.2417 192.933 90.4732 192.888 89.6782C192.844 89.3867 192.8 89.1217 192.8 88.8302C192.8 88.6977 192.756 88.5387 192.712 88.4062C192.667 88.2737 192.667 88.1147 192.623 87.9557C192.535 87.7172 192.491 87.4787 192.402 87.2402C192.402 87.1872 192.358 87.1607 192.358 87.1077C192.314 87.0017 192.314 86.8957 192.27 86.7897C192.181 86.4187 192.137 86.0212 192.137 85.6237C192.137 85.4382 192.181 85.2527 192.225 85.0407C192.225 84.9612 192.225 84.8552 192.225 84.7757C192.225 84.4047 192.225 84.0072 192.446 83.6627C192.535 83.5037 192.712 83.3447 192.933 83.2122C193.198 83.0532 193.507 82.9207 193.861 82.8942C194.038 82.8942 194.214 82.8677 194.391 82.8677C194.524 82.8677 194.656 82.8677 194.789 82.8677C195.452 82.8677 196.071 82.8677 196.734 82.8412C197.308 82.8147 197.883 82.7617 198.458 82.7617C199.165 82.8147 199.784 82.8147 200.402 82.8147ZM196.336 111.912C195.761 111.859 195.098 111.726 194.656 111.514C194.435 111.408 194.214 111.276 194.038 111.143C193.817 110.984 193.684 110.772 193.551 110.56C193.463 110.348 193.463 110.11 193.463 109.871C193.463 109.686 193.463 109.527 193.463 109.341C193.463 108.652 193.463 107.963 193.463 107.248C193.463 105.87 193.507 104.492 193.419 103.114C193.419 102.981 193.375 102.849 193.375 102.716C193.286 102.027 193.198 101.365 193.109 100.676C193.021 99.9867 193.021 99.2977 193.021 98.6087C193.021 98.4762 193.021 98.3437 193.021 98.2112C195.452 98.3437 198.06 98.2642 199.342 98.3172C201.065 98.3172 202.789 98.3172 204.557 98.3437C204.601 101.895 204.425 105.446 204.646 108.97C204.867 110.163 205.132 111.355 205.353 112.548C204.601 112.521 203.894 112.495 203.143 112.442C201.994 112.362 200.844 112.283 199.695 112.203C199.076 112.15 198.502 112.097 197.883 112.071C197.441 111.991 196.866 111.965 196.336 111.912ZM218.613 158.446C218.038 158.446 217.419 158.446 216.845 158.419C215.651 158.366 214.502 158.287 213.309 158.207C212.955 158.181 212.646 158.128 212.336 158.075C212.027 158.022 211.762 157.863 211.541 157.73C211.01 157.412 210.789 156.935 210.613 156.511C210.436 156.034 210.347 155.531 210.259 155.054C210.171 154.259 210.038 153.49 209.994 152.695C209.905 152.006 209.95 151.291 209.905 150.602C209.905 149.913 209.861 149.224 209.861 148.535C209.861 147.21 209.861 145.911 209.861 144.586C211.231 144.586 212.602 144.639 213.928 144.745C216.535 144.878 219.143 144.798 221.751 144.904C221.751 145.434 221.751 145.964 221.751 146.494C221.884 150.469 221.618 154.471 221.928 158.446C221.442 158.446 220.955 158.446 220.469 158.446C219.85 158.446 219.232 158.446 218.613 158.446ZM237.177 152.695C237.177 153.384 237.177 154.073 237.177 154.762C237.177 155.107 237.177 155.451 237.177 155.796C237.177 156.14 237.133 156.511 236.823 156.803C236.47 157.174 235.939 157.412 235.32 157.571C233.95 157.942 232.403 158.101 230.945 158.234C229.795 158.34 228.646 158.419 227.453 158.419C226.701 158.419 225.95 158.419 225.199 158.419C225.11 157.28 225.066 156.14 225.11 155.001C225.11 151.688 225.11 148.376 225.066 145.037C227.718 145.116 230.37 145.063 233.022 145.434C234.392 145.54 235.807 145.54 237.177 145.62C237.177 146.574 237.177 147.501 237.177 148.455C237.177 149.913 237.177 151.291 237.177 152.695Z" fill="white" fill-opacity="0.02"/>
<path d="M229.133 134.091C229.177 134.091 229.177 134.065 229.221 134.039C229.177 134.065 229.133 134.065 229.133 134.091Z" fill="white" fill-opacity="0.02"/>
<path d="M62.7198 9.82878C61.7474 4.95278 62.2778 0.0237808 61.9242 -4.85222C62.0568 -6.28322 59.8911 -7.02522 58.4766 -7.97922C56.8412 -9.14522 55.6479 -10.4967 53.8356 -11.5832C52.4212 -12.4577 50.7858 -13.2262 49.3272 -14.1007C49.1504 -15.7437 49.1062 -17.3602 48.9736 -19.0032C48.9295 -19.7452 48.9294 -20.4607 48.8852 -21.2027C48.7968 -22.2627 49.0178 -23.4287 48.1338 -24.4092C46.9404 -25.6812 44.0674 -25.7607 41.99 -25.3102C40.001 -24.8332 39.8684 -23.4287 39.9568 -22.3422C39.9568 -21.6532 39.9568 -20.9642 39.9568 -20.2752C39.338 -20.6197 38.675 -20.9377 38.012 -21.2822C36.465 -22.1302 35.6252 -23.2962 34.4318 -24.2767C33.371 -25.1777 31.9566 -25.9197 30.719 -26.7412C29.614 -27.4567 28.3322 -28.0927 27.2272 -28.8347C26.0338 -29.6827 25.2824 -30.9017 23.2934 -31.1932C15.2048 -32.0147 11.05 -26.6087 5.34822 -24.1707C2.82882 -22.8457 1.28182 -21.0702 -0.530379 -19.4272C-1.94478 -18.1817 -3.75697 -17.1747 -5.30397 -16.0087C-8.35377 -13.5707 -9.85657 -10.6027 -12.5086 -8.00572C-14.5418 -5.99172 -16.7518 -3.92472 -16.4424 -1.46022C-16.4424 -0.00271797 -16.4424 1.45478 -16.3982 2.91228C-16.4424 3.33628 -16.4866 3.73378 -16.4866 4.13128C-16.5308 4.82028 -16.4866 5.42978 -16.3982 6.03928C-16.3982 6.06578 -16.3982 6.06578 -16.3982 6.09228C-16.2214 7.28478 -16.1772 8.45078 -16.0888 9.64328C-16.0446 10.8358 -15.5142 12.2668 -15.3816 13.5123C-15.249 14.6253 -15.2048 15.7648 -14.8954 16.8778C-14.9396 17.2223 -14.8954 17.5933 -14.8954 17.9643C-14.8954 20.7203 -14.8954 23.4763 -14.0556 26.2058C-13.8346 26.9478 -13.7904 27.4248 -13.6136 28.2198C-13.6136 28.4318 -13.5252 28.6438 -13.3926 28.8558C-13.3926 30.9758 -13.3926 33.1223 -13.3926 35.2423C-13.7904 41.8673 -6.32058 40.8868 1.90062 41.5758C3.71282 41.6553 5.52501 41.6818 7.33722 41.6818C11.8898 41.6818 16.4424 41.4698 20.995 41.3373C28.067 41.3373 35.139 41.0723 42.211 40.7808C44.3768 40.7543 46.5426 40.7543 48.7084 40.7543C50.2554 40.7543 51.8024 40.7543 53.3494 40.7543C63.869 40.2773 63.1177 33.0958 63.5596 28.4053C63.7806 22.2573 64.0458 16.0298 62.7198 9.82878ZM21.2602 10.7033C21.2602 11.4983 21.2602 12.3198 20.7298 13.0618C20.6414 13.1678 20.553 13.3003 20.4204 13.4063C20.2878 13.5388 20.111 13.6978 19.89 13.8038C19.669 13.9098 19.448 14.0158 19.1828 14.0953C18.9618 14.1483 18.7408 14.2013 18.5198 14.2543C18.0778 14.3338 17.5916 14.3868 17.1497 14.4133C16.2657 14.4398 15.3374 14.4398 14.4534 14.4663C13.7904 14.4928 13.1274 14.5458 12.4644 14.5458C11.8014 14.5723 11.0942 14.5723 10.4312 14.5723C9.90082 14.5988 9.41462 14.6253 8.88422 14.6253C8.35382 14.6253 7.82343 14.6518 7.29303 14.6783C6.71843 14.7048 6.14382 14.7578 5.56922 14.8108C4.90622 14.8638 4.24322 14.8903 3.58022 14.8903C3.22662 14.8903 2.82882 14.8903 2.47522 14.8903C1.72382 14.8903 0.972437 14.8903 0.176838 14.8638C-0.972363 14.8373 -2.25417 14.8108 -3.09397 14.3073C-3.80117 13.8833 -4.02218 13.3003 -4.15478 12.7173C-4.28738 12.0283 -4.24316 11.3128 -4.24316 10.6238C-4.24316 9.74928 -4.24316 8.90128 -4.24316 8.02678C-4.24316 7.20528 -4.33157 6.38378 -4.41997 5.56228C-4.50837 4.95278 -4.59678 4.34328 -4.72938 3.76028C-4.86198 3.07129 -5.08297 2.40878 -5.30397 1.71978C-5.48077 1.08378 -5.56918 0.474283 -5.70178 -0.161716C-5.74598 -0.479717 -5.83437 -0.771217 -5.87857 -1.08922C-5.92277 -1.30122 -5.96696 -1.53972 -6.01116 -1.77822C-6.05536 -2.01672 -6.05536 -2.25522 -6.01116 -2.49372C-6.01116 -2.67922 -6.01117 -2.86472 -5.96697 -3.05022C-5.96697 -3.10322 -5.96698 -3.12972 -5.92278 -3.18272C-5.92278 -3.20922 -5.92278 -3.20922 -5.92278 -3.23572C-5.79018 -3.60672 -5.39238 -3.95122 -4.81778 -4.16322C-4.46418 -4.29572 -4.06637 -4.37522 -3.66857 -4.45472C-3.22657 -4.56072 -2.74036 -4.64022 -2.25416 -4.74622C-2.03316 -4.77272 -1.85638 -4.82572 -1.63538 -4.87872C-1.32598 -4.93172 -0.972373 -4.95822 -0.662973 -4.98472C-0.309374 -5.01122 0.0442371 -5.01122 0.397837 -5.01122C0.618837 -5.01122 0.884027 -5.01122 1.10503 -5.01122C1.63543 -5.01122 2.16582 -5.01122 2.69622 -5.01122C4.95042 -5.01122 7.20464 -5.01122 9.45884 -5.01122C9.63564 -5.01122 9.81242 -5.01122 9.98922 -5.01122C10.9616 -5.01122 11.9783 -5.01122 12.9506 -4.98472C13.5252 -4.95822 14.1441 -4.95822 14.7187 -4.90522C15.2491 -4.85222 15.7352 -4.77272 16.2214 -4.66672C16.8402 -4.53422 17.3706 -4.26922 17.7684 -3.97772C18.2546 -3.63322 18.4314 -3.18272 18.6967 -2.78522C18.8735 -2.46722 18.9618 -2.12272 19.0502 -1.80472C19.1386 -1.46022 19.227 -1.11572 19.2712 -0.771217C19.3154 -0.400217 19.3596 -0.0292168 19.3596 0.341784C19.3596 0.447783 19.3596 0.527283 19.4038 0.633284C19.4922 1.26928 19.5806 1.93178 19.669 2.56778C19.7132 2.91228 19.8016 3.25678 19.89 3.57478C19.9342 3.94578 19.9784 4.29028 20.0668 4.66128C20.1552 5.00578 20.2436 5.37678 20.3762 5.72128C20.5088 6.06578 20.553 6.41028 20.5972 6.75478C20.7298 7.47028 20.9508 8.21228 21.0392 8.92778C21.3044 9.56378 21.2602 10.1203 21.2602 10.7033ZM56.3992 38.2898C56.355 38.5018 56.355 38.7403 56.1782 38.9523C56.0014 39.2173 55.7362 39.4293 55.2942 39.5618C54.9406 39.6943 54.4986 39.7208 54.1008 39.7208C53.6588 39.7208 53.2168 39.7208 52.819 39.7473C52.598 39.7473 52.377 39.7738 52.156 39.8003C51.8024 39.8268 51.4488 39.8268 51.0952 39.8268C50.5206 39.8268 49.9018 39.8268 49.3272 39.8533C48.9294 39.8798 48.4874 39.9063 48.0897 39.9593C47.7361 39.9858 47.3824 39.9858 47.073 39.9858C46.9404 39.9858 46.852 39.9858 46.7194 39.9858C45.7912 39.9858 44.863 40.0123 43.979 40.0123C42.1226 40.0123 40.3104 39.9858 38.454 40.0388C38.0562 40.0653 37.6585 40.0653 37.2607 40.0918C36.9954 40.0918 36.7302 40.0918 36.465 40.0918C36.3766 40.0918 36.2882 40.0918 36.1557 40.0918C35.3601 40.0918 34.5202 40.0918 33.7247 40.1183H33.6804C33.3268 40.1183 33.0174 40.0388 32.7522 39.9328C32.5312 39.8798 32.3102 39.8003 32.1334 39.6943C31.824 39.5088 31.6914 39.2703 31.6472 39.0053C31.6472 38.8993 31.6472 38.8198 31.6472 38.7138C31.603 38.4488 31.5588 38.1573 31.5146 37.8923C31.4705 37.5478 31.4704 37.2298 31.4704 36.8853C31.4704 36.1963 31.4704 35.5338 31.4704 34.8448C31.4704 34.1293 31.382 33.4138 31.382 32.6983C31.382 32.0093 31.382 31.3203 31.382 30.6313C31.382 29.9158 31.382 29.2003 31.382 28.4848C31.382 27.7693 31.3378 27.0538 31.3378 26.3383C31.3378 24.9338 31.3378 23.5293 31.3378 22.1248C31.3378 21.4358 31.3378 20.7468 31.3378 20.0578C31.3378 19.7133 31.382 19.3688 31.382 18.9978C31.4262 18.6003 31.5146 18.2293 31.6472 17.8583C31.7356 17.5933 31.9124 17.3018 32.1334 17.0633C32.3102 16.8778 32.5312 16.7188 32.8406 16.6128C33.1942 16.4803 33.5478 16.4273 33.9898 16.4273C34.2108 16.4273 34.4318 16.4273 34.697 16.4273C35.0064 16.4273 35.2716 16.4273 35.581 16.4273C36.6418 16.4273 37.6584 16.4273 38.7192 16.4273C38.9402 16.4273 39.117 16.4273 39.338 16.4008C40.001 16.3743 40.6198 16.2948 41.2828 16.2683C41.9458 16.2418 42.5647 16.2418 43.2276 16.2153C44.0675 16.1888 44.9072 16.1358 45.747 16.1093C46.6752 16.0563 47.6476 15.9768 48.5758 15.9503C49.5482 15.9238 50.5648 15.9503 51.5372 16.0033C52.0676 16.0298 52.598 16.1093 53.04 16.2683C53.5262 16.4538 53.7914 16.7188 53.9682 17.0368C54.0566 17.2223 54.0566 17.4608 54.1008 17.6463C54.145 18.0703 54.1008 18.5208 54.145 18.9448C54.145 19.1038 54.1892 19.2628 54.1892 19.4218C54.1892 19.5543 54.2334 19.6603 54.2334 19.7928V19.7663C54.2776 20.0048 54.3218 20.2433 54.3218 20.4818C54.366 20.7468 54.366 21.0383 54.4102 21.3033C54.4544 21.5153 54.4986 21.7008 54.5428 21.9128C54.587 22.1778 54.6312 22.4163 54.6754 22.6813C54.7196 22.9198 54.7638 23.1318 54.808 23.3703C54.8522 23.6088 54.9407 23.8738 54.9407 24.1123C55.0291 24.6423 55.0732 25.1723 55.1174 25.7288C55.1616 26.2058 55.1616 26.6563 55.25 27.1333C55.3384 27.6103 55.3826 28.0608 55.471 28.5378C55.5152 28.7763 55.5594 29.0148 55.6037 29.2533C55.6479 29.4918 55.692 29.7303 55.692 29.9423C55.7362 30.2868 55.7804 30.6313 55.8688 31.0023C55.9572 31.3468 56.0456 31.6648 56.134 32.0093C56.3108 32.6983 56.4435 33.3873 56.4876 34.1028C56.5319 34.8183 56.5318 35.5338 56.5318 36.2493C56.4434 36.8588 56.4434 37.5743 56.3992 38.2898Z" fill="white" fill-opacity="0.02"/>
<path d="M504.72 9.82878C503.747 4.95278 504.278 0.0237808 503.924 -4.85222C504.057 -6.28322 501.891 -7.02522 500.477 -7.97922C498.841 -9.14522 497.648 -10.4967 495.836 -11.5832C494.421 -12.4577 492.786 -13.2262 491.327 -14.1007C491.15 -15.7437 491.106 -17.3602 490.974 -19.0032C490.929 -19.7452 490.929 -20.4607 490.885 -21.2027C490.797 -22.2627 491.018 -23.4287 490.134 -24.4092C488.94 -25.6812 486.067 -25.7607 483.99 -25.3102C482.001 -24.8332 481.868 -23.4287 481.957 -22.3422C481.957 -21.6532 481.957 -20.9642 481.957 -20.2752C481.338 -20.6197 480.675 -20.9377 480.012 -21.2822C478.465 -22.1302 477.625 -23.2962 476.432 -24.2767C475.371 -25.1777 473.957 -25.9197 472.719 -26.7412C471.614 -27.4567 470.332 -28.0927 469.227 -28.8347C468.034 -29.6827 467.282 -30.9017 465.293 -31.1932C457.205 -32.0147 453.05 -26.6087 447.348 -24.1707C444.829 -22.8457 443.282 -21.0702 441.47 -19.4272C440.055 -18.1817 438.243 -17.1747 436.696 -16.0087C433.646 -13.5707 432.143 -10.6027 429.491 -8.00572C427.458 -5.99172 425.248 -3.92472 425.558 -1.46022C425.558 -0.00271797 425.558 1.45478 425.602 2.91228C425.558 3.33628 425.513 3.73378 425.513 4.13128C425.469 4.82028 425.513 5.42978 425.602 6.03928C425.602 6.06578 425.602 6.06578 425.602 6.09228C425.779 7.28478 425.823 8.45078 425.911 9.64328C425.955 10.8358 426.486 12.2668 426.618 13.5123C426.751 14.6253 426.795 15.7648 427.105 16.8778C427.06 17.2223 427.105 17.5933 427.105 17.9643C427.105 20.7203 427.105 23.4763 427.944 26.2058C428.165 26.9478 428.21 27.4248 428.386 28.2198C428.386 28.4318 428.475 28.6438 428.607 28.8558C428.607 30.9758 428.607 33.1223 428.607 35.2423C428.21 41.8673 435.679 40.8868 443.901 41.5758C445.713 41.6553 447.525 41.6818 449.337 41.6818C453.89 41.6818 458.442 41.4698 462.995 41.3373C470.067 41.3373 477.139 41.0723 484.211 40.7808C486.377 40.7543 488.543 40.7543 490.708 40.7543C492.255 40.7543 493.802 40.7543 495.349 40.7543C505.869 40.2773 505.118 33.0958 505.56 28.4053C505.781 22.2573 506.046 16.0298 504.72 9.82878ZM463.26 10.7033C463.26 11.4983 463.26 12.3198 462.73 13.0618C462.641 13.1678 462.553 13.3003 462.42 13.4063C462.288 13.5388 462.111 13.6978 461.89 13.8038C461.669 13.9098 461.448 14.0158 461.183 14.0953C460.962 14.1483 460.741 14.2013 460.52 14.2543C460.078 14.3338 459.592 14.3868 459.15 14.4133C458.266 14.4398 457.337 14.4398 456.453 14.4663C455.79 14.4928 455.127 14.5458 454.464 14.5458C453.801 14.5723 453.094 14.5723 452.431 14.5723C451.901 14.5988 451.415 14.6253 450.884 14.6253C450.354 14.6253 449.823 14.6518 449.293 14.6783C448.718 14.7048 448.144 14.7578 447.569 14.8108C446.906 14.8638 446.243 14.8903 445.58 14.8903C445.227 14.8903 444.829 14.8903 444.475 14.8903C443.724 14.8903 442.972 14.8903 442.177 14.8638C441.028 14.8373 439.746 14.8108 438.906 14.3073C438.199 13.8833 437.978 13.3003 437.845 12.7173C437.713 12.0283 437.757 11.3128 437.757 10.6238C437.757 9.74928 437.757 8.90128 437.757 8.02678C437.757 7.20528 437.668 6.38378 437.58 5.56228C437.492 4.95278 437.403 4.34328 437.271 3.76028C437.138 3.07129 436.917 2.40878 436.696 1.71978C436.519 1.08378 436.431 0.474283 436.298 -0.161716C436.254 -0.479717 436.166 -0.771217 436.121 -1.08922C436.077 -1.30122 436.033 -1.53972 435.989 -1.77822C435.945 -2.01672 435.945 -2.25522 435.989 -2.49372C435.989 -2.67922 435.989 -2.86472 436.033 -3.05022C436.033 -3.10322 436.033 -3.12972 436.077 -3.18272C436.077 -3.20922 436.077 -3.20922 436.077 -3.23572C436.21 -3.60672 436.608 -3.95122 437.182 -4.16322C437.536 -4.29572 437.934 -4.37522 438.331 -4.45472C438.773 -4.56072 439.26 -4.64022 439.746 -4.74622C439.967 -4.77272 440.144 -4.82572 440.365 -4.87872C440.674 -4.93172 441.028 -4.95822 441.337 -4.98472C441.691 -5.01122 442.044 -5.01122 442.398 -5.01122C442.619 -5.01122 442.884 -5.01122 443.105 -5.01122C443.635 -5.01122 444.166 -5.01122 444.696 -5.01122C446.95 -5.01122 449.205 -5.01122 451.459 -5.01122C451.636 -5.01122 451.812 -5.01122 451.989 -5.01122C452.962 -5.01122 453.978 -5.01122 454.951 -4.98472C455.525 -4.95822 456.144 -4.95822 456.719 -4.90522C457.249 -4.85222 457.735 -4.77272 458.221 -4.66672C458.84 -4.53422 459.371 -4.26922 459.768 -3.97772C460.255 -3.63322 460.431 -3.18272 460.697 -2.78522C460.873 -2.46722 460.962 -2.12272 461.05 -1.80472C461.139 -1.46022 461.227 -1.11572 461.271 -0.771217C461.315 -0.400217 461.36 -0.0292168 461.36 0.341784C461.36 0.447783 461.36 0.527283 461.404 0.633284C461.492 1.26928 461.581 1.93178 461.669 2.56778C461.713 2.91228 461.802 3.25678 461.89 3.57478C461.934 3.94578 461.978 4.29028 462.067 4.66128C462.155 5.00578 462.244 5.37678 462.376 5.72128C462.509 6.06578 462.553 6.41028 462.597 6.75478C462.73 7.47028 462.951 8.21228 463.039 8.92778C463.304 9.56378 463.26 10.1203 463.26 10.7033ZM498.399 38.2898C498.355 38.5018 498.355 38.7403 498.178 38.9523C498.001 39.2173 497.736 39.4293 497.294 39.5618C496.941 39.6943 496.499 39.7208 496.101 39.7208C495.659 39.7208 495.217 39.7208 494.819 39.7473C494.598 39.7473 494.377 39.7738 494.156 39.8003C493.802 39.8268 493.449 39.8268 493.095 39.8268C492.521 39.8268 491.902 39.8268 491.327 39.8533C490.929 39.8798 490.487 39.9063 490.09 39.9593C489.736 39.9858 489.382 39.9858 489.073 39.9858C488.94 39.9858 488.852 39.9858 488.719 39.9858C487.791 39.9858 486.863 40.0123 485.979 40.0123C484.123 40.0123 482.31 39.9858 480.454 40.0388C480.056 40.0653 479.658 40.0653 479.261 40.0918C478.995 40.0918 478.73 40.0918 478.465 40.0918C478.377 40.0918 478.288 40.0918 478.156 40.0918C477.36 40.0918 476.52 40.0918 475.725 40.1183H475.68C475.327 40.1183 475.017 40.0388 474.752 39.9328C474.531 39.8798 474.31 39.8003 474.133 39.6943C473.824 39.5088 473.691 39.2703 473.647 39.0053C473.647 38.8993 473.647 38.8198 473.647 38.7138C473.603 38.4488 473.559 38.1573 473.515 37.8923C473.47 37.5478 473.47 37.2298 473.47 36.8853C473.47 36.1963 473.47 35.5338 473.47 34.8448C473.47 34.1293 473.382 33.4138 473.382 32.6983C473.382 32.0093 473.382 31.3203 473.382 30.6313C473.382 29.9158 473.382 29.2003 473.382 28.4848C473.382 27.7693 473.338 27.0538 473.338 26.3383C473.338 24.9338 473.338 23.5293 473.338 22.1248C473.338 21.4358 473.338 20.7468 473.338 20.0578C473.338 19.7133 473.382 19.3688 473.382 18.9978C473.426 18.6003 473.515 18.2293 473.647 17.8583C473.736 17.5933 473.912 17.3018 474.133 17.0633C474.31 16.8778 474.531 16.7188 474.841 16.6128C475.194 16.4803 475.548 16.4273 475.99 16.4273C476.211 16.4273 476.432 16.4273 476.697 16.4273C477.006 16.4273 477.272 16.4273 477.581 16.4273C478.642 16.4273 479.658 16.4273 480.719 16.4273C480.94 16.4273 481.117 16.4273 481.338 16.4008C482.001 16.3743 482.62 16.2948 483.283 16.2683C483.946 16.2418 484.565 16.2418 485.228 16.2153C486.067 16.1888 486.907 16.1358 487.747 16.1093C488.675 16.0563 489.648 15.9768 490.576 15.9503C491.548 15.9238 492.565 15.9503 493.537 16.0033C494.068 16.0298 494.598 16.1093 495.04 16.2683C495.526 16.4538 495.791 16.7188 495.968 17.0368C496.057 17.2223 496.057 17.4608 496.101 17.6463C496.145 18.0703 496.101 18.5208 496.145 18.9448C496.145 19.1038 496.189 19.2628 496.189 19.4218C496.189 19.5543 496.233 19.6603 496.233 19.7928V19.7663C496.278 20.0048 496.322 20.2433 496.322 20.4818C496.366 20.7468 496.366 21.0383 496.41 21.3033C496.454 21.5153 496.499 21.7008 496.543 21.9128C496.587 22.1778 496.631 22.4163 496.675 22.6813C496.72 22.9198 496.764 23.1318 496.808 23.3703C496.852 23.6088 496.941 23.8738 496.941 24.1123C497.029 24.6423 497.073 25.1723 497.117 25.7288C497.162 26.2058 497.162 26.6563 497.25 27.1333C497.338 27.6103 497.383 28.0608 497.471 28.5378C497.515 28.7763 497.559 29.0148 497.604 29.2533C497.648 29.4918 497.692 29.7303 497.692 29.9423C497.736 30.2868 497.78 30.6313 497.869 31.0023C497.957 31.3468 498.046 31.6648 498.134 32.0093C498.311 32.6983 498.443 33.3873 498.488 34.1028C498.532 34.8183 498.532 35.5338 498.532 36.2493C498.443 36.8588 498.443 37.5743 498.399 38.2898Z" fill="white" fill-opacity="0.02"/>
<path d="M232.316 12.8795C226.746 12.4555 210.879 13.5155 208.006 10.733C202.967 5.69799 204.381 -2.623 204.735 -8.347C205.221 -14.389 205.619 -20.431 205.309 -26.473C205.354 -29.0435 204.691 -31.5875 204.956 -34.1315C205.309 -35.5095 204.425 -38.5305 206.017 -39.3785C206.768 -41.0215 208.934 -42.267 210.437 -43.6715C212.249 -45.235 214.017 -46.931 215.962 -48.3885C217.155 -49.369 218.127 -50.4555 219.188 -51.5155C221.752 -54.139 225.465 -56.2325 228.426 -58.697C231.608 -61.559 233.597 -63.149 237.708 -59.545C241.377 -57.584 244.868 -55.517 247.565 -53.0525C249.598 -51.2505 252.603 -50.005 255.167 -48.4945C257.421 -47.1165 259.189 -45.447 261.797 -44.2545C264.891 -42.744 269.134 -41.6045 270.504 -39.2195C271.963 -33.8135 271.477 -28.2485 272.405 -22.816C273.333 -18.682 273.51 -14.495 274.306 -10.3345C275.853 -5.6175 276.383 -0.821003 275.499 3.97549C275.013 6.1485 275.455 8.6925 273.112 10.4945C270.946 12.005 267.278 11.316 264.405 11.6605C259.41 12.4025 254.371 12.27 249.288 12.4025C246.194 12.7735 243.1 12.5615 240.006 12.5615C238.813 12.5615 237.62 12.641 236.382 12.7205C235.233 12.8 234.084 12.8795 232.934 12.8795C232.625 12.8795 232.448 12.8795 232.316 12.8795ZM222.503 -25.943C222.326 -25.8635 222.194 -25.731 222.15 -25.5985C222.105 -25.466 222.105 -25.36 222.15 -25.2275C222.194 -25.095 222.282 -24.9625 222.415 -24.83C222.547 -24.6975 222.636 -24.565 222.768 -24.4325C223.078 -24.141 223.476 -23.876 223.829 -23.611C224.183 -23.346 224.581 -23.081 224.934 -22.816C225.509 -22.445 226.128 -22.074 226.746 -21.756C228.028 -21.067 229.266 -20.3515 230.548 -19.6625C230.548 -19.636 230.548 -19.636 230.548 -19.6095C230.415 -19.159 230.238 -18.735 230.061 -18.2845C229.84 -17.8075 229.619 -17.357 229.398 -16.88C228.956 -15.8995 228.514 -14.919 228.161 -13.912C227.984 -13.435 227.763 -12.958 227.586 -12.481C227.409 -12.004 227.188 -11.5535 227.012 -11.0765C226.614 -10.361 226.216 -9.6455 225.907 -8.93C225.73 -8.55901 225.597 -8.16151 225.465 -7.79051C225.332 -7.44601 225.155 -7.10151 225.023 -6.757C224.934 -6.51851 224.846 -6.28001 224.757 -6.0415C224.713 -5.909 224.669 -5.77651 224.625 -5.67051C224.581 -5.48501 224.492 -5.29951 224.492 -5.11401C224.492 -5.0345 224.492 -4.9285 224.492 -4.84901C224.492 -4.7695 224.536 -4.71651 224.581 -4.66351C224.625 -4.55751 224.757 -4.42501 224.89 -4.34551C225.111 -4.21301 225.465 -4.16 225.774 -4.16C225.862 -4.16 225.907 -4.16 225.995 -4.16C226.481 -4.21301 226.923 -4.425 227.233 -4.637C227.498 -4.79601 227.719 -4.98151 227.94 -5.167C227.984 -5.1935 228.028 -5.24651 228.072 -5.27301C228.249 -5.43201 228.426 -5.61751 228.603 -5.80301C229.089 -6.30651 229.531 -6.83651 229.973 -7.3665C230.15 -7.55201 230.327 -7.73751 230.503 -7.92301C230.724 -8.16151 230.901 -8.3735 231.122 -8.612C231.343 -8.85051 231.608 -9.06251 231.829 -9.30101C232.05 -9.51301 232.271 -9.69851 232.492 -9.91051C233.023 -10.361 233.509 -10.8115 234.039 -11.2885C234.26 -11.474 234.437 -11.6595 234.614 -11.845C234.923 -12.1365 235.189 -12.4015 235.498 -12.693C235.675 -12.852 235.807 -13.011 235.94 -13.17C236.205 -13.4615 236.47 -13.7265 236.736 -14.018C237.089 -14.4155 237.487 -14.813 237.885 -15.184C237.973 -15.2635 238.062 -15.3695 238.194 -15.449C238.548 -15.237 238.946 -15.025 239.299 -14.7865C239.962 -14.3625 240.581 -13.912 241.244 -13.435C241.421 -13.3025 241.642 -13.1435 241.819 -13.011C241.951 -12.9315 242.084 -12.852 242.172 -12.7725C242.968 -12.269 243.763 -11.7655 244.559 -11.2885C245.266 -10.838 245.929 -10.3875 246.636 -9.937C246.99 -9.69851 247.388 -9.48651 247.786 -9.24801C247.83 -9.22151 247.874 -9.19501 247.918 -9.16851C248.228 -8.9565 248.493 -8.77101 248.802 -8.55901C248.979 -8.45301 249.156 -8.3735 249.333 -8.26751L249.288 -8.29401C249.288 -8.26751 249.333 -8.26751 249.377 -8.26751C249.819 -7.97601 250.261 -7.68451 250.703 -7.3665C250.88 -7.26051 251.056 -7.15451 251.277 -7.10151C251.454 -7.0485 251.675 -7.075 251.852 -7.10151C252.206 -7.18101 252.471 -7.39301 252.559 -7.6315C252.648 -7.9495 252.692 -8.29401 252.692 -8.63851C252.648 -8.98301 252.559 -9.32751 252.471 -9.64551C252.294 -10.2285 252.073 -10.785 251.764 -11.3415C251.587 -11.6595 251.454 -11.9775 251.277 -12.2955C251.056 -12.7725 250.747 -13.2495 250.482 -13.7265C250.349 -13.9385 250.261 -14.124 250.128 -14.336C249.996 -14.5745 249.819 -14.813 249.73 -15.0515C249.509 -15.5285 249.244 -16.032 249.023 -16.509C248.802 -16.986 248.581 -17.463 248.36 -17.9665C248.228 -18.258 248.051 -18.5495 247.918 -18.841C247.83 -19.053 247.697 -19.2385 247.565 -19.4505C247.432 -19.689 247.299 -19.9275 247.123 -20.1395C246.946 -20.4045 246.769 -20.643 246.592 -20.908C246.504 -21.0935 246.371 -21.2525 246.283 -21.438C246.194 -21.5705 246.15 -21.703 246.062 -21.809C246.415 -21.9945 246.725 -22.1535 247.078 -22.339C247.299 -22.445 247.52 -22.5775 247.697 -22.6835C247.874 -22.763 248.007 -22.869 248.183 -22.9485C248.36 -23.081 248.581 -23.187 248.758 -23.3195C248.935 -23.452 249.112 -23.5845 249.333 -23.717C249.642 -23.929 249.996 -24.141 250.305 -24.3265C250.482 -24.406 250.614 -24.512 250.791 -24.565C250.924 -24.6445 251.101 -24.6975 251.277 -24.777C251.587 -24.883 251.852 -25.0155 252.161 -25.1215C252.427 -25.2275 252.736 -25.3335 253.001 -25.4395C253.266 -25.5455 253.576 -25.6515 253.841 -25.7575C254.106 -25.8635 254.416 -25.9695 254.681 -26.0755C254.813 -26.1285 254.946 -26.208 255.034 -26.2875C255.123 -26.367 255.123 -26.473 255.123 -26.579C255.079 -26.7645 254.902 -26.95 254.592 -27.056C254.283 -27.162 253.885 -27.1885 253.532 -27.2415C253.09 -27.2945 252.648 -27.2945 252.206 -27.321C251.94 -27.321 251.631 -27.321 251.366 -27.321C251.145 -27.321 250.88 -27.2945 250.659 -27.2945C250.482 -27.2945 250.349 -27.2945 250.172 -27.2945C249.819 -27.2945 249.421 -27.268 249.067 -27.268C248.537 -27.268 247.962 -27.2945 247.432 -27.2945C246.99 -27.2945 246.548 -27.321 246.062 -27.3475C245.355 -27.374 244.647 -27.427 243.94 -27.4535C243.852 -27.639 243.763 -27.8245 243.675 -28.0365C243.454 -28.54 243.189 -29.017 242.968 -29.494C242.703 -29.9975 242.393 -30.501 242.084 -30.978C241.819 -31.4285 241.553 -31.879 241.332 -32.3295C241.244 -32.6475 241.156 -32.9655 241.067 -33.2835C241.023 -33.4425 240.979 -33.628 240.935 -33.787C240.89 -33.946 240.802 -34.1315 240.758 -34.2905C240.625 -34.6085 240.537 -34.953 240.36 -35.271C240.272 -35.43 240.183 -35.5625 240.051 -35.7215C239.962 -35.854 239.83 -35.96 239.697 -36.0925C239.609 -36.172 239.564 -36.278 239.476 -36.3575C239.211 -36.808 238.946 -37.2585 238.68 -37.709C238.548 -37.9475 238.459 -38.1595 238.371 -38.398C238.327 -38.5305 238.238 -38.6365 238.194 -38.7425C238.15 -38.8485 238.062 -38.9545 237.973 -39.0605C237.885 -39.1665 237.752 -39.2195 237.62 -39.299C237.31 -39.4315 236.868 -39.405 236.603 -39.246C236.515 -39.193 236.382 -39.1135 236.338 -39.034C236.294 -38.981 236.249 -38.9015 236.205 -38.8485C236.117 -38.716 236.073 -38.557 235.984 -38.398C235.896 -38.2125 235.852 -38.0535 235.763 -37.868C235.675 -37.6295 235.586 -37.391 235.498 -37.1525C235.321 -36.649 235.233 -36.1455 235.1 -35.642C234.923 -34.953 234.658 -34.264 234.437 -33.575C234.26 -33.1245 234.128 -32.674 233.951 -32.197C233.774 -31.6405 233.597 -31.084 233.465 -30.5275C233.376 -30.2095 233.288 -29.8915 233.2 -29.547C233.155 -29.388 233.111 -29.2025 233.067 -29.0435C232.934 -28.5135 232.758 -27.9835 232.625 -27.4535V-27.427C232.537 -27.109 232.448 -26.8175 232.36 -26.4995C231.299 -26.4465 230.194 -26.3935 229.133 -26.314C228.382 -26.261 227.63 -26.2345 226.835 -26.1815C226.481 -26.155 226.128 -26.155 225.774 -26.155C225.465 -26.155 225.199 -26.155 224.89 -26.155C224.713 -26.155 224.492 -26.155 224.315 -26.155C224.094 -26.155 223.873 -26.155 223.652 -26.1815C223.564 -26.1815 223.52 -26.1815 223.431 -26.1815C223.122 -26.1285 222.768 -26.0755 222.503 -25.943Z" fill="white" fill-opacity="0.02"/>
<path d="M89.2405 164.01C89.2847 152.191 89.1963 140.372 89.0195 128.553C90.0361 124.763 84.5111 122.564 80.8425 120.046C76.9971 117.131 73.6379 113.925 68.8643 111.487C65.5935 109.87 62.0133 108.492 59.2287 106.558C56.7093 104.703 54.3667 102.742 51.4053 101.125C48.4881 99.4556 44.8194 98.2896 42.079 96.5141C38.764 94.1821 36.1562 91.5321 32.797 89.2266C30.6312 87.9016 29.0842 85.7816 25.9018 85.3311C19.1834 85.1721 16.001 91.4526 11.7136 93.9701C6.98425 97.0176 1.72445 99.7206 -2.56295 103.033C-3.84475 104.014 -5.30334 104.888 -6.89455 105.736C-6.80614 104.968 -6.62934 104.173 -6.45255 103.404C-6.09895 101.205 -5.21495 98.8196 -6.67355 96.7261C-9.32555 94.0496 -16.4418 95.1361 -19.6684 96.9116C-21.5248 97.8921 -21.7899 99.4291 -22.1435 100.807C-23.2485 104.411 -22.4529 108.068 -21.7015 111.672C-21.6131 112.255 -21.5689 112.838 -21.4805 113.395C-22.8949 114.269 -24.3535 115.17 -25.9005 115.965C-29.0829 117.688 -33.061 119.251 -35.7572 121.292C-36.2876 121.583 -36.7738 121.875 -37.0832 122.219C-38.0556 123.094 -39.6468 124.127 -39.912 125.24C-40.0004 125.585 -40.0004 125.956 -40.0888 126.3C-40.133 126.406 -40.133 126.486 -40.133 126.592C-41.1496 129.639 -39.9562 135.443 -40.4424 137.563C-40.4424 141.167 -40.3982 144.797 -40.4866 148.401C-40.4424 157.835 -42.1662 167.216 -42.0778 176.624C-42.0336 186.959 -37.6578 193.213 -22.674 195.598V195.571C-23.116 193.478 -23.558 191.384 -23.8674 189.291C-24 188.337 -24.0884 187.383 -24.221 186.429C-24.3978 185.369 -24.5746 184.309 -24.7514 183.249C-25.1492 181.288 -25.2818 179.3 -25.6354 177.313C-25.8122 176.306 -26.0331 175.299 -26.1215 174.292C-26.2541 173.258 -26.3426 172.225 -26.4752 171.191C-26.5636 170.211 -26.652 169.204 -26.7404 168.223C-26.7846 167.693 -26.8288 167.163 -26.873 166.633C-26.9614 165.785 -27.094 164.937 -26.8288 164.116C-26.431 162.791 -25.5028 161.545 -24 160.538C-23.558 160.22 -22.9834 159.955 -22.4972 159.664C-22.232 159.505 -21.9226 159.372 -21.6574 159.213C-21.1712 158.975 -20.6408 158.71 -20.1104 158.498C-19.138 158.1 -17.9888 157.862 -16.8838 157.703C-15.823 157.544 -14.8063 157.385 -13.7455 157.252C-12.1101 157.014 -10.5189 156.749 -8.88354 156.616C-7.95535 156.537 -7.02715 156.431 -6.09895 156.378C-5.25915 156.325 -4.46356 156.272 -3.62376 156.219C-1.94416 156.113 -0.264549 155.98 1.41505 155.901C2.21065 155.874 3.00623 155.821 3.80183 155.795C4.15543 155.795 4.50903 155.768 4.90683 155.768C5.87923 155.768 6.80744 155.901 7.64724 156.139C8.61964 156.404 9.32685 156.908 9.94564 157.411C10.5644 157.915 10.9623 158.551 11.1833 159.16C11.4043 159.637 11.5369 160.141 11.6695 160.644C11.8905 161.704 12.0231 162.764 12.1115 163.824C12.3325 165.812 12.5092 167.799 12.465 169.787C12.4208 171.907 12.244 174.027 11.9788 176.147C11.8904 176.889 11.802 177.631 11.7578 178.373C11.7136 178.982 11.6695 179.618 11.6695 180.254C11.6695 182.321 11.7137 184.388 11.6695 186.455C11.6695 187.489 11.6695 188.496 11.6695 189.529C11.6695 190.536 11.7579 191.543 11.8463 192.55C11.9789 194.538 12.1998 196.525 12.3766 198.513C17.8132 198.804 23.2498 199.016 28.7307 199.016C29.7915 199.016 30.8522 199.016 31.913 198.99C34.786 198.963 37.7033 198.99 40.6205 198.99C52.3335 199.043 64.1349 199.096 75.3617 196.949C81.9475 195.704 87.3841 195.015 88.3565 190.298C90.3013 181.579 88.8427 172.728 89.2405 164.01ZM75.1407 154.099C75.0523 154.629 74.9639 155.185 74.8313 155.715C74.6987 156.272 74.566 156.828 74.3008 157.358C74.0356 157.941 73.6379 158.471 72.8423 158.842C72.0909 159.213 71.1627 159.372 70.2345 159.425C69.4831 159.478 68.6874 159.505 67.936 159.531C66.389 159.611 64.7978 159.664 63.2508 159.743C59.9358 159.876 56.665 160.035 53.35 160.167C51.7588 160.247 50.1235 160.326 48.5323 160.353C47.8251 160.379 47.1179 160.379 46.4107 160.379C46.1013 160.379 45.7919 160.379 45.4825 160.379C44.3333 160.353 43.1841 160.194 42.1233 159.982C41.1067 159.77 40.0458 159.399 39.3828 158.842C39.0734 158.604 38.8524 158.339 38.7198 158.047C38.5872 157.782 38.4988 157.491 38.4988 157.199C38.4546 156.934 38.4547 156.696 38.4105 156.431C38.3663 155.98 38.322 155.503 38.2778 155.026C38.2336 154.019 38.2337 153.039 38.1895 152.032C38.1453 150.972 38.1894 149.912 38.2778 148.852C38.3662 147.924 38.4547 146.97 38.4547 146.043C38.4547 145.274 38.4988 144.479 38.4988 143.711C38.4988 142.81 38.4105 141.909 38.3663 141.008C38.2779 139.736 38.0568 138.49 38.0568 137.218C38.0568 137.271 38.0568 137.351 38.0568 137.404C38.0568 136.953 38.0127 136.503 38.1895 136.052C38.1453 135.522 38.101 134.992 38.0568 134.462C38.0126 133.853 38.1011 133.217 38.4547 132.607C38.6315 132.263 38.9409 131.945 39.2945 131.653C39.5597 131.415 39.9132 131.203 40.2668 131.044C40.7088 130.858 41.1951 130.779 41.7255 130.673C42.1675 130.593 42.6095 130.567 43.0515 130.54C44.5985 130.461 46.1897 130.408 47.7367 130.355C49.3279 130.302 50.9633 130.328 52.5545 130.275C53.4827 130.249 54.4108 130.222 55.2948 130.222C55.781 130.222 56.2673 130.222 56.7093 130.222C57.1071 130.222 57.549 130.249 57.9468 130.275C58.7866 130.302 59.6265 130.381 60.4663 130.408C61.2619 130.461 62.1017 130.461 62.8973 130.514C63.7813 130.567 64.7095 130.646 65.5935 130.726C67.1847 130.858 68.8201 131.07 70.2345 131.574C71.4279 131.998 72.4444 132.66 73.019 133.429C73.4168 133.906 73.7262 134.383 73.8588 134.886C73.9914 135.257 73.9915 135.655 74.0357 136.052C74.1683 137.033 74.2566 138.013 74.3008 138.994C74.3008 139.471 74.3008 139.948 74.345 140.425C74.3892 140.928 74.4334 141.405 74.5219 141.909C74.6544 142.916 74.7871 143.923 74.8755 144.93C74.9639 145.963 75.0523 146.997 75.0965 148.03C75.1407 149.011 75.1406 149.965 75.1848 150.945C75.229 151.979 75.2733 153.039 75.1407 154.099Z" fill="white" fill-opacity="0.02"/>
<path d="M531.24 164.01C531.285 152.191 531.196 140.372 531.019 128.553C532.036 124.763 526.511 122.564 522.842 120.046C518.997 117.131 515.638 113.925 510.864 111.487C507.593 109.87 504.013 108.492 501.229 106.558C498.709 104.703 496.367 102.742 493.405 101.125C490.488 99.4556 486.819 98.2896 484.079 96.5141C480.764 94.1821 478.156 91.5321 474.797 89.2266C472.631 87.9016 471.084 85.7816 467.902 85.3311C461.183 85.1721 458.001 91.4526 453.714 93.9701C448.984 97.0176 443.724 99.7206 439.437 103.033C438.155 104.014 436.697 104.888 435.105 105.736C435.194 104.968 435.371 104.173 435.547 103.404C435.901 101.205 436.785 98.8196 435.326 96.7261C432.674 94.0496 425.558 95.1361 422.332 96.9116C420.475 97.8921 420.21 99.4291 419.856 100.807C418.751 104.411 419.547 108.068 420.298 111.672C420.387 112.255 420.431 112.838 420.519 113.395C419.105 114.269 417.646 115.17 416.099 115.965C412.917 117.688 408.939 119.251 406.243 121.292C405.712 121.583 405.226 121.875 404.917 122.219C403.944 123.094 402.353 124.127 402.088 125.24C402 125.585 402 125.956 401.911 126.3C401.867 126.406 401.867 126.486 401.867 126.592C400.85 129.639 402.044 135.443 401.558 137.563C401.558 141.167 401.602 144.797 401.513 148.401C401.558 157.835 399.834 167.216 399.922 176.624C399.966 186.959 404.342 193.213 419.326 195.598V195.571C418.884 193.478 418.442 191.384 418.133 189.291C418 188.337 417.912 187.383 417.779 186.429C417.602 185.369 417.425 184.309 417.249 183.249C416.851 181.288 416.718 179.3 416.365 177.313C416.188 176.306 415.967 175.299 415.878 174.292C415.746 173.258 415.657 172.225 415.525 171.191C415.436 170.211 415.348 169.204 415.26 168.223C415.215 167.693 415.171 167.163 415.127 166.633C415.039 165.785 414.906 164.937 415.171 164.116C415.569 162.791 416.497 161.545 418 160.538C418.442 160.22 419.017 159.955 419.503 159.664C419.768 159.505 420.077 159.372 420.343 159.213C420.829 158.975 421.359 158.71 421.89 158.498C422.862 158.1 424.011 157.862 425.116 157.703C426.177 157.544 427.194 157.385 428.254 157.252C429.89 157.014 431.481 156.749 433.116 156.616C434.045 156.537 434.973 156.431 435.901 156.378C436.741 156.325 437.536 156.272 438.376 156.219C440.056 156.113 441.735 155.98 443.415 155.901C444.211 155.874 445.006 155.821 445.802 155.795C446.155 155.795 446.509 155.768 446.907 155.768C447.879 155.768 448.807 155.901 449.647 156.139C450.62 156.404 451.327 156.908 451.946 157.411C452.564 157.915 452.962 158.551 453.183 159.16C453.404 159.637 453.537 160.141 453.669 160.644C453.89 161.704 454.023 162.764 454.111 163.824C454.332 165.812 454.509 167.799 454.465 169.787C454.421 171.907 454.244 174.027 453.979 176.147C453.89 176.889 453.802 177.631 453.758 178.373C453.714 178.982 453.669 179.618 453.669 180.254C453.669 182.321 453.714 184.388 453.669 186.455C453.669 187.489 453.669 188.496 453.669 189.529C453.669 190.536 453.758 191.543 453.846 192.55C453.979 194.538 454.2 196.525 454.377 198.513C459.813 198.804 465.25 199.016 470.731 199.016C471.791 199.016 472.852 199.016 473.913 198.99C476.786 198.963 479.703 198.99 482.62 198.99C494.333 199.043 506.135 199.096 517.362 196.949C523.947 195.704 529.384 195.015 530.356 190.298C532.301 181.579 530.843 172.728 531.24 164.01ZM517.141 154.099C517.052 154.629 516.964 155.185 516.831 155.715C516.699 156.272 516.566 156.828 516.301 157.358C516.036 157.941 515.638 158.471 514.842 158.842C514.091 159.213 513.163 159.372 512.234 159.425C511.483 159.478 510.687 159.505 509.936 159.531C508.389 159.611 506.798 159.664 505.251 159.743C501.936 159.876 498.665 160.035 495.35 160.167C493.759 160.247 492.123 160.326 490.532 160.353C489.825 160.379 489.118 160.379 488.411 160.379C488.101 160.379 487.792 160.379 487.482 160.379C486.333 160.353 485.184 160.194 484.123 159.982C483.107 159.77 482.046 159.399 481.383 158.842C481.073 158.604 480.852 158.339 480.72 158.047C480.587 157.782 480.499 157.491 480.499 157.199C480.455 156.934 480.455 156.696 480.41 156.431C480.366 155.98 480.322 155.503 480.278 155.026C480.234 154.019 480.234 153.039 480.189 152.032C480.145 150.972 480.189 149.912 480.278 148.852C480.366 147.924 480.455 146.97 480.455 146.043C480.455 145.274 480.499 144.479 480.499 143.711C480.499 142.81 480.41 141.909 480.366 141.008C480.278 139.736 480.057 138.49 480.057 137.218C480.057 137.271 480.057 137.351 480.057 137.404C480.057 136.953 480.013 136.503 480.189 136.052C480.145 135.522 480.101 134.992 480.057 134.462C480.013 133.853 480.101 133.217 480.455 132.607C480.631 132.263 480.941 131.945 481.294 131.653C481.56 131.415 481.913 131.203 482.267 131.044C482.709 130.858 483.195 130.779 483.725 130.673C484.167 130.593 484.609 130.567 485.051 130.54C486.598 130.461 488.19 130.408 489.737 130.355C491.328 130.302 492.963 130.328 494.554 130.275C495.483 130.249 496.411 130.222 497.295 130.222C497.781 130.222 498.267 130.222 498.709 130.222C499.107 130.222 499.549 130.249 499.947 130.275C500.787 130.302 501.626 130.381 502.466 130.408C503.262 130.461 504.102 130.461 504.897 130.514C505.781 130.567 506.709 130.646 507.593 130.726C509.185 130.858 510.82 131.07 512.234 131.574C513.428 131.998 514.444 132.66 515.019 133.429C515.417 133.906 515.726 134.383 515.859 134.886C515.991 135.257 515.991 135.655 516.036 136.052C516.168 137.033 516.257 138.013 516.301 138.994C516.301 139.471 516.301 139.948 516.345 140.425C516.389 140.928 516.433 141.405 516.522 141.909C516.654 142.916 516.787 143.923 516.875 144.93C516.964 145.963 517.052 146.997 517.096 148.03C517.141 149.011 517.141 149.965 517.185 150.945C517.229 151.979 517.273 153.039 517.141 154.099Z" fill="white" fill-opacity="0.02"/>
<path d="M372.385 9.54046C372.385 8.13597 372.385 6.73147 372.385 5.35347C372.208 3.97547 373.048 2.25297 371.236 1.16647C370.485 0.742466 369.556 0.450967 368.893 0.000466347C368.054 -0.609034 367.346 -1.29803 366.286 -1.82803C365.181 -2.46403 363.678 -3.07353 362.484 -3.84203C361.07 -5.14053 359.346 -6.25353 357.313 -7.20753C355.766 -8.02903 354.926 -9.24803 353.202 -10.0165C352.407 -10.4405 351.567 -10.8115 350.816 -11.262C350.064 -11.792 349.49 -12.428 348.65 -12.905C343.655 -15.1045 340.296 -9.67203 337.335 -8.05553C335.434 -7.07503 333.975 -5.56453 332.34 -4.39853C329.113 -2.62303 327.655 -1.03303 325.975 1.35197C325.533 1.85547 325.047 2.33247 324.605 2.83597C324.296 3.15396 324.251 3.52497 324.384 3.86947C324.296 4.58497 324.34 5.27397 324.428 5.98947C324.738 8.85147 324.959 11.74 324.87 14.602C324.914 18.1265 324.826 21.6245 324.914 25.149C325.003 26.58 324.826 28.435 327.124 29.3095C328.76 29.7865 330.616 29.7865 332.428 29.7865C333.003 29.7865 333.578 29.7865 334.152 29.7865C337.953 29.8395 341.755 29.813 345.556 29.7865C347.059 29.7865 348.561 29.76 350.02 29.76C350.108 29.76 350.153 29.76 350.241 29.7865C350.285 29.7865 350.374 29.7865 350.418 29.7865C350.595 29.7865 350.727 29.7865 350.904 29.76C356.075 29.76 361.203 29.7865 366.374 30.0515C366.683 30.078 366.993 30.1045 367.302 30.1045C370.352 30.1045 372.12 28.7265 372.208 26.845C372.562 21.0945 372.341 15.291 372.385 9.54046ZM367.965 17.994C367.965 20.1405 367.965 22.287 367.965 24.407C367.921 25.414 368.142 26.474 367.612 27.428C365.711 27.3485 363.855 27.269 361.954 27.216C361.379 25.1225 361.733 23.0025 362.042 20.8825C362.219 19.531 362.352 18.1795 362.529 16.828C362.794 15.45 362.175 14.0455 359.611 13.7275C357.49 13.436 355.324 13.3035 353.202 13.1975C352.76 13.1445 352.363 13.1445 351.921 13.1445C349.887 13.1445 348.208 13.701 347.987 15.1585C347.633 16.4305 347.766 17.729 348.031 19.001C348.164 20.3525 348.252 21.7305 348.296 23.082C348.252 24.4335 348.119 25.785 347.987 27.1365C347.412 27.1365 346.882 27.1365 346.307 27.1365C340.738 27.163 335.213 27.1895 329.644 27.0305C328.937 22.2075 329.555 17.3315 329.334 12.482C329.29 10.309 329.113 8.16247 328.892 5.98947C328.892 5.03547 328.45 3.97547 329.379 3.15396C331.5 0.689466 331.854 -0.582534 335.522 -2.54353C336.848 -3.31203 337.644 -4.34553 338.837 -5.16703C339.854 -5.80303 340.65 -6.25353 341.622 -6.96903C343.257 -8.10853 344.362 -9.51303 346.175 -10.5465C347.456 -9.24803 349.666 -8.47953 351.346 -7.41953C352.274 -6.70403 352.981 -5.90903 354.175 -5.32603C355.147 -4.79603 356.208 -4.31903 357.136 -3.73603C357.888 -3.20603 358.418 -2.59653 359.169 -2.09303C360.363 -1.29803 361.821 -0.688534 363.192 0.0269661C364.783 0.980967 365.888 2.19997 367.877 2.88897C368.009 7.97696 367.965 12.9855 367.965 17.994Z" fill="white" fill-opacity="0.02"/>
<path d="M340.871 2.99558C340.473 2.99558 340.075 2.99558 339.677 2.99558C338.307 2.96908 336.893 2.96908 335.567 3.23408C333.71 3.57858 333.622 4.79758 333.533 5.75158C333.445 6.33458 333.401 6.91758 333.445 7.47408C333.489 8.21608 333.71 8.95808 333.754 9.70008C333.666 12.0586 335.169 12.8801 339.058 12.9331C339.412 12.9596 339.766 12.9861 340.163 12.9861C342.594 12.9861 345.423 12.3766 345.865 10.8131C346.351 9.17008 345.335 7.58008 345.379 5.93708C345.335 4.00258 344.318 3.04858 340.871 2.99558Z" fill="white" fill-opacity="0.02"/>
<path d="M168.799 201.189C168.799 199.784 168.799 198.38 168.799 197.002C168.622 195.624 169.462 193.901 167.65 192.815C166.899 192.391 165.97 192.099 165.307 191.649C164.468 191.039 163.76 190.35 162.7 189.82C161.595 189.184 160.092 188.575 158.898 187.806C157.484 186.508 155.76 185.395 153.727 184.441C152.18 183.619 151.34 182.4 149.616 181.632C148.821 181.208 147.981 180.837 147.23 180.386C146.478 179.856 145.904 179.22 145.064 178.743C140.069 176.544 136.71 181.976 133.749 183.593C131.848 184.573 130.389 186.084 128.754 187.25C125.527 189.025 124.069 190.615 122.389 193C121.947 193.504 121.461 193.981 121.019 194.484C120.71 194.802 120.665 195.173 120.798 195.518C120.71 196.233 120.754 196.922 120.842 197.638C121.152 200.5 121.373 203.388 121.284 206.25C121.328 209.775 121.24 213.273 121.328 216.797C121.417 218.228 121.24 220.083 123.538 220.958C125.174 221.435 127.03 221.435 128.842 221.435C129.417 221.435 129.992 221.435 130.566 221.435C134.367 221.488 138.169 221.461 141.97 221.435C143.473 221.435 144.975 221.408 146.434 221.408C146.522 221.408 146.567 221.408 146.655 221.435C146.699 221.435 146.788 221.435 146.832 221.435C147.009 221.435 147.141 221.435 147.318 221.408C152.489 221.408 157.617 221.435 162.788 221.7C163.097 221.726 163.407 221.753 163.716 221.753C166.766 221.753 168.534 220.375 168.622 218.493C168.932 212.769 168.711 206.966 168.799 201.189ZM164.379 209.642C164.379 211.789 164.379 213.935 164.379 216.055C164.335 217.062 164.556 218.122 164.026 219.076C162.125 218.997 160.269 218.917 158.368 218.864C157.793 216.771 158.147 214.651 158.456 212.531C158.633 211.179 158.766 209.828 158.943 208.476C159.208 207.098 158.589 205.694 156.025 205.376C153.904 205.084 151.738 204.952 149.616 204.846C149.174 204.793 148.777 204.793 148.335 204.793C146.301 204.793 144.622 205.349 144.401 206.807C144.047 208.079 144.18 209.377 144.445 210.649C144.578 212.001 144.666 213.379 144.71 214.73C144.666 216.082 144.533 217.433 144.401 218.785C143.826 218.785 143.296 218.785 142.721 218.785C137.152 218.811 131.627 218.838 126.058 218.679C125.351 213.856 125.969 208.98 125.748 204.13C125.704 201.957 125.527 199.811 125.306 197.638C125.306 196.684 124.864 195.624 125.793 194.802C127.914 192.338 128.268 191.066 131.936 189.105C133.262 188.336 134.058 187.303 135.251 186.481C136.268 185.845 137.064 185.395 138.036 184.679C139.671 183.54 140.776 182.135 142.589 181.102C143.87 182.4 146.08 183.169 147.76 184.229C148.688 184.944 149.395 185.739 150.589 186.322C151.561 186.852 152.622 187.329 153.55 187.912C154.302 188.442 154.832 189.052 155.583 189.555C156.777 190.35 158.235 190.96 159.606 191.675C161.197 192.629 162.302 193.848 164.291 194.537C164.423 199.625 164.379 204.634 164.379 209.642Z" fill="white" fill-opacity="0.02"/>
<path d="M137.285 194.644C136.887 194.644 136.489 194.644 136.091 194.644C134.721 194.618 133.307 194.618 131.981 194.883C130.124 195.227 130.036 196.446 129.948 197.4C129.859 197.983 129.815 198.566 129.859 199.123C129.903 199.865 130.124 200.607 130.169 201.349C130.08 203.707 131.583 204.529 135.473 204.582C135.826 204.608 136.18 204.635 136.578 204.635C139.009 204.635 141.837 204.025 142.279 202.462C142.766 200.819 141.749 199.229 141.793 197.586C141.705 195.651 140.732 194.697 137.285 194.644Z" fill="white" fill-opacity="0.02"/>
<path d="M164.071 296.882C163.231 290.496 163.143 284.083 162.745 277.67C162.524 270.859 162.612 271.416 155.187 266.487C153.949 265.586 152.8 264.632 151.474 263.81C149.618 262.618 147.275 261.796 145.463 260.577C143.076 259.04 141.485 256.099 137.728 255.648C133.485 255.675 130.656 262.459 128.711 264.526C124.379 269.057 119.959 273.933 120.932 279.339C121.727 289.356 121.197 299.4 121.33 309.417C121.374 311.669 121.197 313.922 121.551 316.148C121.595 319.381 126.103 320.07 130.612 320.017C130.921 320.017 131.23 320.017 131.54 320.017C134.369 320.017 137.197 319.752 139.982 319.434C142.943 319.195 145.949 319.248 148.91 319.089C152.314 318.983 155.717 319.036 159.121 318.771C159.695 318.718 160.314 318.745 160.933 318.745C162.612 318.771 164.336 318.771 165.397 317.897C167.474 315.538 166.767 312.623 167.032 310.026C167.519 305.548 164.734 301.281 164.071 296.882ZM161.994 316.095C154.656 316.333 147.319 316.439 140.026 316.784C136.976 317.075 133.927 317.473 130.833 317.393C129.374 317.287 127.252 317.579 126.192 316.837C125.705 315.459 125.794 314.001 125.794 312.597C125.794 306.793 125.794 300.963 125.794 295.16C125.794 290.867 125.882 286.547 125.617 282.254C125.175 278.253 125.352 274.119 128.446 270.462C129.904 268.845 131.584 267.255 132.91 265.586C134.634 263.36 135.96 261.001 137.949 258.855C139.363 259.835 140.38 261.001 141.75 262.008C143.297 263.227 145.419 264.102 147.363 265.082C149.397 266.169 150.899 267.547 152.667 268.766C154.17 269.879 156.027 270.859 157.397 272.025C158.59 273.721 158.192 275.735 158.413 277.564C158.458 279.737 158.59 281.936 158.811 284.109C159.032 289.197 159.032 294.312 160.27 299.373C160.933 302.05 162.215 304.647 162.701 307.323C162.568 310.212 162.878 313.206 161.994 316.095Z" fill="white" fill-opacity="0.02"/>
<path d="M62.7198 274.829C61.7474 269.953 62.2778 265.024 61.9242 260.148C62.0568 258.717 59.8911 257.975 58.4766 257.021C56.8412 255.855 55.6479 254.503 53.8356 253.417C52.4212 252.542 50.7858 251.774 49.3272 250.899C49.1504 249.256 49.1062 247.64 48.9736 245.997C48.9295 245.255 48.9294 244.539 48.8852 243.797C48.7968 242.737 49.0178 241.571 48.1338 240.591C46.9404 239.319 44.0674 239.239 41.99 239.69C40.001 240.167 39.8684 241.571 39.9568 242.658C39.9568 243.347 39.9568 244.036 39.9568 244.725C39.338 244.38 38.675 244.062 38.012 243.718C36.465 242.87 35.6252 241.704 34.4318 240.723C33.371 239.822 31.9566 239.08 30.719 238.259C29.614 237.543 28.3322 236.907 27.2272 236.165C26.0338 235.317 25.2824 234.098 23.2934 233.807C15.2048 232.985 11.05 238.391 5.34822 240.829C2.82882 242.154 1.28182 243.93 -0.530379 245.573C-1.94478 246.818 -3.75697 247.825 -5.30397 248.991C-8.35377 251.429 -9.85657 254.397 -12.5086 256.994C-14.5418 259.008 -16.7518 261.075 -16.4424 263.54C-16.4424 264.997 -16.4424 266.455 -16.3982 267.912C-16.4424 268.336 -16.4866 268.734 -16.4866 269.131C-16.5308 269.82 -16.4866 270.43 -16.3982 271.039C-16.3982 271.066 -16.3982 271.066 -16.3982 271.092C-16.2214 272.285 -16.1772 273.451 -16.0888 274.643C-16.0446 275.836 -15.5142 277.267 -15.3816 278.512C-15.249 279.625 -15.2048 280.765 -14.8954 281.878C-14.9396 282.222 -14.8954 282.593 -14.8954 282.964C-14.8954 285.72 -14.8954 288.476 -14.0556 291.206C-13.8346 291.948 -13.7904 292.425 -13.6136 293.22C-13.6136 293.432 -13.5252 293.644 -13.3926 293.856C-13.3926 295.976 -13.3926 298.122 -13.3926 300.242C-13.7904 306.867 -6.32058 305.887 1.90062 306.576C3.71282 306.655 5.52501 306.682 7.33722 306.682C11.8898 306.682 16.4424 306.47 20.995 306.337C28.067 306.337 35.139 306.072 42.211 305.781C44.3768 305.754 46.5426 305.754 48.7084 305.754C50.2554 305.754 51.8024 305.754 53.3494 305.754C63.869 305.277 63.1177 298.096 63.5596 293.405C63.7806 287.257 64.0458 281.03 62.7198 274.829ZM21.2602 275.703C21.2602 276.498 21.2602 277.32 20.7298 278.062C20.6414 278.168 20.553 278.3 20.4204 278.406C20.2878 278.539 20.111 278.698 19.89 278.804C19.669 278.91 19.448 279.016 19.1828 279.095C18.9618 279.148 18.7408 279.201 18.5198 279.254C18.0778 279.334 17.5916 279.387 17.1497 279.413C16.2657 279.44 15.3374 279.44 14.4534 279.466C13.7904 279.493 13.1274 279.546 12.4644 279.546C11.8014 279.572 11.0942 279.572 10.4312 279.572C9.90082 279.599 9.41462 279.625 8.88422 279.625C8.35382 279.625 7.82343 279.652 7.29303 279.678C6.71843 279.705 6.14382 279.758 5.56922 279.811C4.90622 279.864 4.24322 279.89 3.58022 279.89C3.22662 279.89 2.82882 279.89 2.47522 279.89C1.72382 279.89 0.972437 279.89 0.176838 279.864C-0.972363 279.837 -2.25417 279.811 -3.09397 279.307C-3.80117 278.883 -4.02218 278.3 -4.15478 277.717C-4.28738 277.028 -4.24316 276.313 -4.24316 275.624C-4.24316 274.749 -4.24316 273.901 -4.24316 273.027C-4.24316 272.205 -4.33157 271.384 -4.41997 270.562C-4.50837 269.953 -4.59678 269.343 -4.72938 268.76C-4.86198 268.071 -5.08297 267.409 -5.30397 266.72C-5.48077 266.084 -5.56918 265.474 -5.70178 264.838C-5.74598 264.52 -5.83437 264.229 -5.87857 263.911C-5.92277 263.699 -5.96696 263.46 -6.01116 263.222C-6.05536 262.983 -6.05536 262.745 -6.01116 262.506C-6.01116 262.321 -6.01117 262.135 -5.96697 261.95C-5.96697 261.897 -5.96698 261.87 -5.92278 261.817C-5.92278 261.791 -5.92278 261.791 -5.92278 261.764C-5.79018 261.393 -5.39238 261.049 -4.81778 260.837C-4.46418 260.704 -4.06637 260.625 -3.66857 260.545C-3.22657 260.439 -2.74036 260.36 -2.25416 260.254C-2.03316 260.227 -1.85638 260.174 -1.63538 260.121C-1.32598 260.068 -0.972373 260.042 -0.662973 260.015C-0.309374 259.989 0.0442371 259.989 0.397837 259.989C0.618837 259.989 0.884027 259.989 1.10503 259.989C1.63543 259.989 2.16582 259.989 2.69622 259.989C4.95042 259.989 7.20464 259.989 9.45884 259.989C9.63564 259.989 9.81242 259.989 9.98922 259.989C10.9616 259.989 11.9783 259.989 12.9506 260.015C13.5252 260.042 14.1441 260.042 14.7187 260.095C15.2491 260.148 15.7352 260.227 16.2214 260.333C16.8402 260.466 17.3706 260.731 17.7684 261.022C18.2546 261.367 18.4314 261.817 18.6967 262.215C18.8735 262.533 18.9618 262.877 19.0502 263.195C19.1386 263.54 19.227 263.884 19.2712 264.229C19.3154 264.6 19.3596 264.971 19.3596 265.342C19.3596 265.448 19.3596 265.527 19.4038 265.633C19.4922 266.269 19.5806 266.932 19.669 267.568C19.7132 267.912 19.8016 268.257 19.89 268.575C19.9342 268.946 19.9784 269.29 20.0668 269.661C20.1552 270.006 20.2436 270.377 20.3762 270.721C20.5088 271.066 20.553 271.41 20.5972 271.755C20.7298 272.47 20.9508 273.212 21.0392 273.928C21.3044 274.564 21.2602 275.12 21.2602 275.703ZM56.3992 303.29C56.355 303.502 56.355 303.74 56.1782 303.952C56.0014 304.217 55.7362 304.429 55.2942 304.562C54.9406 304.694 54.4986 304.721 54.1008 304.721C53.6588 304.721 53.2168 304.721 52.819 304.747C52.598 304.747 52.377 304.774 52.156 304.8C51.8024 304.827 51.4488 304.827 51.0952 304.827C50.5206 304.827 49.9018 304.827 49.3272 304.853C48.9294 304.88 48.4874 304.906 48.0897 304.959C47.7361 304.986 47.3824 304.986 47.073 304.986C46.9404 304.986 46.852 304.986 46.7194 304.986C45.7912 304.986 44.863 305.012 43.979 305.012C42.1226 305.012 40.3104 304.986 38.454 305.039C38.0562 305.065 37.6585 305.065 37.2607 305.092C36.9954 305.092 36.7302 305.092 36.465 305.092C36.3766 305.092 36.2882 305.092 36.1557 305.092C35.3601 305.092 34.5202 305.092 33.7247 305.118H33.6804C33.3268 305.118 33.0174 305.039 32.7522 304.933C32.5312 304.88 32.3102 304.8 32.1334 304.694C31.824 304.509 31.6914 304.27 31.6472 304.005C31.6472 303.899 31.6472 303.82 31.6472 303.714C31.603 303.449 31.5588 303.157 31.5146 302.892C31.4705 302.548 31.4704 302.23 31.4704 301.885C31.4704 301.196 31.4704 300.534 31.4704 299.845C31.4704 299.129 31.382 298.414 31.382 297.698C31.382 297.009 31.382 296.32 31.382 295.631C31.382 294.916 31.382 294.2 31.382 293.485C31.382 292.769 31.3378 292.054 31.3378 291.338C31.3378 289.934 31.3378 288.529 31.3378 287.125C31.3378 286.436 31.3378 285.747 31.3378 285.058C31.3378 284.713 31.382 284.369 31.382 283.998C31.4262 283.6 31.5146 283.229 31.6472 282.858C31.7356 282.593 31.9124 282.302 32.1334 282.063C32.3102 281.878 32.5312 281.719 32.8406 281.613C33.1942 281.48 33.5478 281.427 33.9898 281.427C34.2108 281.427 34.4318 281.427 34.697 281.427C35.0064 281.427 35.2716 281.427 35.581 281.427C36.6418 281.427 37.6584 281.427 38.7192 281.427C38.9402 281.427 39.117 281.427 39.338 281.401C40.001 281.374 40.6198 281.295 41.2828 281.268C41.9458 281.242 42.5647 281.242 43.2276 281.215C44.0675 281.189 44.9072 281.136 45.747 281.109C46.6752 281.056 47.6476 280.977 48.5758 280.95C49.5482 280.924 50.5648 280.95 51.5372 281.003C52.0676 281.03 52.598 281.109 53.04 281.268C53.5262 281.454 53.7914 281.719 53.9682 282.037C54.0566 282.222 54.0566 282.461 54.1008 282.646C54.145 283.07 54.1008 283.521 54.145 283.945C54.145 284.104 54.1892 284.263 54.1892 284.422C54.1892 284.554 54.2334 284.66 54.2334 284.793V284.766C54.2776 285.005 54.3218 285.243 54.3218 285.482C54.366 285.747 54.366 286.038 54.4102 286.303C54.4544 286.515 54.4986 286.701 54.5428 286.913C54.587 287.178 54.6312 287.416 54.6754 287.681C54.7196 287.92 54.7638 288.132 54.808 288.37C54.8522 288.609 54.9407 288.874 54.9407 289.112C55.0291 289.642 55.0732 290.172 55.1174 290.729C55.1616 291.206 55.1616 291.656 55.25 292.133C55.3384 292.61 55.3826 293.061 55.471 293.538C55.5152 293.776 55.5594 294.015 55.6037 294.253C55.6479 294.492 55.692 294.73 55.692 294.942C55.7362 295.287 55.7804 295.631 55.8688 296.002C55.9572 296.347 56.0456 296.665 56.134 297.009C56.3108 297.698 56.4435 298.387 56.4876 299.103C56.5319 299.818 56.5318 300.534 56.5318 301.249C56.4434 301.859 56.4434 302.574 56.3992 303.29Z" fill="white" fill-opacity="0.02"/>
<path d="M504.72 274.829C503.747 269.953 504.278 265.024 503.924 260.148C504.057 258.717 501.891 257.975 500.477 257.021C498.841 255.855 497.648 254.503 495.836 253.417C494.421 252.542 492.786 251.774 491.327 250.899C491.15 249.256 491.106 247.64 490.974 245.997C490.929 245.255 490.929 244.539 490.885 243.797C490.797 242.737 491.018 241.571 490.134 240.591C488.94 239.319 486.067 239.239 483.99 239.69C482.001 240.167 481.868 241.571 481.957 242.658C481.957 243.347 481.957 244.036 481.957 244.725C481.338 244.38 480.675 244.062 480.012 243.718C478.465 242.87 477.625 241.704 476.432 240.723C475.371 239.822 473.957 239.08 472.719 238.259C471.614 237.543 470.332 236.907 469.227 236.165C468.034 235.317 467.282 234.098 465.293 233.807C457.205 232.985 453.05 238.391 447.348 240.829C444.829 242.154 443.282 243.93 441.47 245.573C440.055 246.818 438.243 247.825 436.696 248.991C433.646 251.429 432.143 254.397 429.491 256.994C427.458 259.008 425.248 261.075 425.558 263.54C425.558 264.997 425.558 266.455 425.602 267.912C425.558 268.336 425.513 268.734 425.513 269.131C425.469 269.82 425.513 270.43 425.602 271.039C425.602 271.066 425.602 271.066 425.602 271.092C425.779 272.285 425.823 273.451 425.911 274.643C425.955 275.836 426.486 277.267 426.618 278.512C426.751 279.625 426.795 280.765 427.105 281.878C427.06 282.222 427.105 282.593 427.105 282.964C427.105 285.72 427.105 288.476 427.944 291.206C428.165 291.948 428.21 292.425 428.386 293.22C428.386 293.432 428.475 293.644 428.607 293.856C428.607 295.976 428.607 298.122 428.607 300.242C428.21 306.867 435.679 305.887 443.901 306.576C445.713 306.655 447.525 306.682 449.337 306.682C453.89 306.682 458.442 306.47 462.995 306.337C470.067 306.337 477.139 306.072 484.211 305.781C486.377 305.754 488.543 305.754 490.708 305.754C492.255 305.754 493.802 305.754 495.349 305.754C505.869 305.277 505.118 298.096 505.56 293.405C505.781 287.257 506.046 281.03 504.72 274.829ZM463.26 275.703C463.26 276.498 463.26 277.32 462.73 278.062C462.641 278.168 462.553 278.3 462.42 278.406C462.288 278.539 462.111 278.698 461.89 278.804C461.669 278.91 461.448 279.016 461.183 279.095C460.962 279.148 460.741 279.201 460.52 279.254C460.078 279.334 459.592 279.387 459.15 279.413C458.266 279.44 457.337 279.44 456.453 279.466C455.79 279.493 455.127 279.546 454.464 279.546C453.801 279.572 453.094 279.572 452.431 279.572C451.901 279.599 451.415 279.625 450.884 279.625C450.354 279.625 449.823 279.652 449.293 279.678C448.718 279.705 448.144 279.758 447.569 279.811C446.906 279.864 446.243 279.89 445.58 279.89C445.227 279.89 444.829 279.89 444.475 279.89C443.724 279.89 442.972 279.89 442.177 279.864C441.028 279.837 439.746 279.811 438.906 279.307C438.199 278.883 437.978 278.3 437.845 277.717C437.713 277.028 437.757 276.313 437.757 275.624C437.757 274.749 437.757 273.901 437.757 273.027C437.757 272.205 437.668 271.384 437.58 270.562C437.492 269.953 437.403 269.343 437.271 268.76C437.138 268.071 436.917 267.409 436.696 266.72C436.519 266.084 436.431 265.474 436.298 264.838C436.254 264.52 436.166 264.229 436.121 263.911C436.077 263.699 436.033 263.46 435.989 263.222C435.945 262.983 435.945 262.745 435.989 262.506C435.989 262.321 435.989 262.135 436.033 261.95C436.033 261.897 436.033 261.87 436.077 261.817C436.077 261.791 436.077 261.791 436.077 261.764C436.21 261.393 436.608 261.049 437.182 260.837C437.536 260.704 437.934 260.625 438.331 260.545C438.773 260.439 439.26 260.36 439.746 260.254C439.967 260.227 440.144 260.174 440.365 260.121C440.674 260.068 441.028 260.042 441.337 260.015C441.691 259.989 442.044 259.989 442.398 259.989C442.619 259.989 442.884 259.989 443.105 259.989C443.635 259.989 444.166 259.989 444.696 259.989C446.95 259.989 449.205 259.989 451.459 259.989C451.636 259.989 451.812 259.989 451.989 259.989C452.962 259.989 453.978 259.989 454.951 260.015C455.525 260.042 456.144 260.042 456.719 260.095C457.249 260.148 457.735 260.227 458.221 260.333C458.84 260.466 459.371 260.731 459.768 261.022C460.255 261.367 460.431 261.817 460.697 262.215C460.873 262.533 460.962 262.877 461.05 263.195C461.139 263.54 461.227 263.884 461.271 264.229C461.315 264.6 461.36 264.971 461.36 265.342C461.36 265.448 461.36 265.527 461.404 265.633C461.492 266.269 461.581 266.932 461.669 267.568C461.713 267.912 461.802 268.257 461.89 268.575C461.934 268.946 461.978 269.29 462.067 269.661C462.155 270.006 462.244 270.377 462.376 270.721C462.509 271.066 462.553 271.41 462.597 271.755C462.73 272.47 462.951 273.212 463.039 273.928C463.304 274.564 463.26 275.12 463.26 275.703ZM498.399 303.29C498.355 303.502 498.355 303.74 498.178 303.952C498.001 304.217 497.736 304.429 497.294 304.562C496.941 304.694 496.499 304.721 496.101 304.721C495.659 304.721 495.217 304.721 494.819 304.747C494.598 304.747 494.377 304.774 494.156 304.8C493.802 304.827 493.449 304.827 493.095 304.827C492.521 304.827 491.902 304.827 491.327 304.853C490.929 304.88 490.487 304.906 490.09 304.959C489.736 304.986 489.382 304.986 489.073 304.986C488.94 304.986 488.852 304.986 488.719 304.986C487.791 304.986 486.863 305.012 485.979 305.012C484.123 305.012 482.31 304.986 480.454 305.039C480.056 305.065 479.658 305.065 479.261 305.092C478.995 305.092 478.73 305.092 478.465 305.092C478.377 305.092 478.288 305.092 478.156 305.092C477.36 305.092 476.52 305.092 475.725 305.118H475.68C475.327 305.118 475.017 305.039 474.752 304.933C474.531 304.88 474.31 304.8 474.133 304.694C473.824 304.509 473.691 304.27 473.647 304.005C473.647 303.899 473.647 303.82 473.647 303.714C473.603 303.449 473.559 303.157 473.515 302.892C473.47 302.548 473.47 302.23 473.47 301.885C473.47 301.196 473.47 300.534 473.47 299.845C473.47 299.129 473.382 298.414 473.382 297.698C473.382 297.009 473.382 296.32 473.382 295.631C473.382 294.916 473.382 294.2 473.382 293.485C473.382 292.769 473.338 292.054 473.338 291.338C473.338 289.934 473.338 288.529 473.338 287.125C473.338 286.436 473.338 285.747 473.338 285.058C473.338 284.713 473.382 284.369 473.382 283.998C473.426 283.6 473.515 283.229 473.647 282.858C473.736 282.593 473.912 282.302 474.133 282.063C474.31 281.878 474.531 281.719 474.841 281.613C475.194 281.48 475.548 281.427 475.99 281.427C476.211 281.427 476.432 281.427 476.697 281.427C477.006 281.427 477.272 281.427 477.581 281.427C478.642 281.427 479.658 281.427 480.719 281.427C480.94 281.427 481.117 281.427 481.338 281.401C482.001 281.374 482.62 281.295 483.283 281.268C483.946 281.242 484.565 281.242 485.228 281.215C486.067 281.189 486.907 281.136 487.747 281.109C488.675 281.056 489.648 280.977 490.576 280.95C491.548 280.924 492.565 280.95 493.537 281.003C494.068 281.03 494.598 281.109 495.04 281.268C495.526 281.454 495.791 281.719 495.968 282.037C496.057 282.222 496.057 282.461 496.101 282.646C496.145 283.07 496.101 283.521 496.145 283.945C496.145 284.104 496.189 284.263 496.189 284.422C496.189 284.554 496.233 284.66 496.233 284.793V284.766C496.278 285.005 496.322 285.243 496.322 285.482C496.366 285.747 496.366 286.038 496.41 286.303C496.454 286.515 496.499 286.701 496.543 286.913C496.587 287.178 496.631 287.416 496.675 287.681C496.72 287.92 496.764 288.132 496.808 288.37C496.852 288.609 496.941 288.874 496.941 289.112C497.029 289.642 497.073 290.172 497.117 290.729C497.162 291.206 497.162 291.656 497.25 292.133C497.338 292.61 497.383 293.061 497.471 293.538C497.515 293.776 497.559 294.015 497.604 294.253C497.648 294.492 497.692 294.73 497.692 294.942C497.736 295.287 497.78 295.631 497.869 296.002C497.957 296.347 498.046 296.665 498.134 297.009C498.311 297.698 498.443 298.387 498.488 299.103C498.532 299.818 498.532 300.534 498.532 301.249C498.443 301.859 498.443 302.574 498.399 303.29Z" fill="white" fill-opacity="0.02"/>
<path d="M232.316 277.879C226.746 277.455 210.879 278.516 208.006 275.733C202.967 270.698 204.381 262.377 204.735 256.653C205.221 250.611 205.619 244.569 205.309 238.527C205.354 235.956 204.691 233.412 204.956 230.868C205.309 229.49 204.425 226.47 206.017 225.622C206.768 223.979 208.934 222.733 210.437 221.328C212.249 219.765 214.017 218.069 215.962 216.612C217.155 215.631 218.127 214.544 219.188 213.484C221.752 210.861 225.465 208.767 228.426 206.303C231.608 203.441 233.597 201.851 237.708 205.455C241.377 207.416 244.868 209.483 247.565 211.947C249.598 213.749 252.603 214.995 255.167 216.505C257.421 217.883 259.189 219.553 261.797 220.745C264.891 222.256 269.134 223.395 270.504 225.78C271.963 231.186 271.477 236.751 272.405 242.184C273.333 246.318 273.51 250.505 274.306 254.665C275.853 259.382 276.383 264.179 275.499 268.975C275.013 271.148 275.455 273.692 273.112 275.494C270.946 277.005 267.278 276.316 264.405 276.66C259.41 277.403 254.371 277.27 249.288 277.403C246.194 277.774 243.1 277.562 240.006 277.562C238.813 277.562 237.62 277.641 236.382 277.72C235.233 277.8 234.084 277.879 232.934 277.879C232.625 277.879 232.448 277.879 232.316 277.879ZM222.503 239.057C222.326 239.136 222.194 239.269 222.15 239.402C222.105 239.534 222.105 239.64 222.15 239.772C222.194 239.905 222.282 240.037 222.415 240.17C222.547 240.302 222.636 240.435 222.768 240.567C223.078 240.859 223.476 241.124 223.829 241.389C224.183 241.654 224.581 241.919 224.934 242.184C225.509 242.555 226.128 242.926 226.746 243.244C228.028 243.933 229.266 244.648 230.548 245.337C230.548 245.364 230.548 245.364 230.548 245.39C230.415 245.841 230.238 246.265 230.061 246.715C229.84 247.192 229.619 247.643 229.398 248.12C228.956 249.1 228.514 250.081 228.161 251.088C227.984 251.565 227.763 252.042 227.586 252.519C227.409 252.996 227.188 253.446 227.012 253.923C226.614 254.639 226.216 255.354 225.907 256.07C225.73 256.441 225.597 256.838 225.465 257.209C225.332 257.554 225.155 257.898 225.023 258.243C224.934 258.481 224.846 258.72 224.757 258.958C224.713 259.091 224.669 259.223 224.625 259.329C224.581 259.515 224.492 259.7 224.492 259.886C224.492 259.965 224.492 260.071 224.492 260.151C224.492 260.23 224.536 260.284 224.581 260.337C224.625 260.443 224.757 260.575 224.89 260.654C225.111 260.787 225.465 260.84 225.774 260.84C225.862 260.84 225.907 260.84 225.995 260.84C226.481 260.787 226.923 260.575 227.233 260.363C227.498 260.204 227.719 260.018 227.94 259.833C227.984 259.806 228.028 259.753 228.072 259.727C228.249 259.568 228.426 259.382 228.603 259.197C229.089 258.693 229.531 258.163 229.973 257.633C230.15 257.448 230.327 257.262 230.503 257.077C230.724 256.838 230.901 256.626 231.122 256.388C231.343 256.149 231.608 255.938 231.829 255.699C232.05 255.487 232.271 255.301 232.492 255.089C233.023 254.639 233.509 254.188 234.039 253.712C234.26 253.526 234.437 253.34 234.614 253.155C234.923 252.863 235.189 252.598 235.498 252.307C235.675 252.148 235.807 251.989 235.94 251.83C236.205 251.538 236.47 251.273 236.736 250.982C237.089 250.584 237.487 250.187 237.885 249.816C237.973 249.736 238.062 249.63 238.194 249.551C238.548 249.763 238.946 249.975 239.299 250.213C239.962 250.637 240.581 251.088 241.244 251.565C241.421 251.697 241.642 251.857 241.819 251.989C241.951 252.069 242.084 252.148 242.172 252.227C242.968 252.731 243.763 253.235 244.559 253.712C245.266 254.162 245.929 254.612 246.636 255.063C246.99 255.301 247.388 255.513 247.786 255.752C247.83 255.778 247.874 255.805 247.918 255.832C248.228 256.044 248.493 256.229 248.802 256.441C248.979 256.547 249.156 256.626 249.333 256.732L249.288 256.706C249.288 256.732 249.333 256.732 249.377 256.732C249.819 257.024 250.261 257.315 250.703 257.633C250.88 257.739 251.056 257.845 251.277 257.898C251.454 257.951 251.675 257.925 251.852 257.898C252.206 257.819 252.471 257.607 252.559 257.368C252.648 257.05 252.692 256.706 252.692 256.361C252.648 256.017 252.559 255.672 252.471 255.354C252.294 254.771 252.073 254.215 251.764 253.658C251.587 253.34 251.454 253.022 251.277 252.704C251.056 252.227 250.747 251.75 250.482 251.273C250.349 251.061 250.261 250.876 250.128 250.664C249.996 250.426 249.819 250.187 249.73 249.948C249.509 249.471 249.244 248.968 249.023 248.491C248.802 248.014 248.581 247.537 248.36 247.033C248.228 246.742 248.051 246.451 247.918 246.159C247.83 245.947 247.697 245.761 247.565 245.549C247.432 245.311 247.299 245.072 247.123 244.86C246.946 244.595 246.769 244.357 246.592 244.092C246.504 243.906 246.371 243.747 246.283 243.562C246.194 243.429 246.15 243.297 246.062 243.191C246.415 243.005 246.725 242.846 247.078 242.661C247.299 242.555 247.52 242.423 247.697 242.317C247.874 242.237 248.007 242.131 248.183 242.052C248.36 241.919 248.581 241.813 248.758 241.68C248.935 241.548 249.112 241.415 249.333 241.283C249.642 241.071 249.996 240.859 250.305 240.673C250.482 240.594 250.614 240.488 250.791 240.435C250.924 240.355 251.101 240.302 251.277 240.223C251.587 240.117 251.852 239.984 252.161 239.878C252.427 239.772 252.736 239.666 253.001 239.56C253.266 239.454 253.576 239.348 253.841 239.242C254.106 239.136 254.416 239.03 254.681 238.924C254.813 238.871 254.946 238.792 255.034 238.712C255.123 238.633 255.123 238.527 255.123 238.421C255.079 238.235 254.902 238.05 254.592 237.944C254.283 237.838 253.885 237.811 253.532 237.758C253.09 237.705 252.648 237.706 252.206 237.679C251.94 237.679 251.631 237.679 251.366 237.679C251.145 237.679 250.88 237.705 250.659 237.705C250.482 237.705 250.349 237.705 250.172 237.705C249.819 237.705 249.421 237.732 249.067 237.732C248.537 237.732 247.962 237.705 247.432 237.705C246.99 237.705 246.548 237.679 246.062 237.652C245.355 237.626 244.647 237.573 243.94 237.547C243.852 237.361 243.763 237.175 243.675 236.964C243.454 236.46 243.189 235.983 242.968 235.506C242.703 235.002 242.393 234.499 242.084 234.022C241.819 233.571 241.553 233.121 241.332 232.67C241.244 232.352 241.156 232.035 241.067 231.717C241.023 231.558 240.979 231.372 240.935 231.213C240.89 231.054 240.802 230.868 240.758 230.709C240.625 230.391 240.537 230.047 240.36 229.729C240.272 229.57 240.183 229.437 240.051 229.278C239.962 229.146 239.83 229.04 239.697 228.907C239.609 228.828 239.564 228.722 239.476 228.642C239.211 228.192 238.946 227.741 238.68 227.291C238.548 227.052 238.459 226.84 238.371 226.602C238.327 226.469 238.238 226.363 238.194 226.257C238.15 226.151 238.062 226.045 237.973 225.939C237.885 225.833 237.752 225.78 237.62 225.701C237.31 225.568 236.868 225.595 236.603 225.754C236.515 225.807 236.382 225.886 236.338 225.966C236.294 226.019 236.249 226.099 236.205 226.152C236.117 226.284 236.073 226.443 235.984 226.602C235.896 226.787 235.852 226.946 235.763 227.132C235.675 227.37 235.586 227.609 235.498 227.847C235.321 228.351 235.233 228.854 235.1 229.358C234.923 230.047 234.658 230.736 234.437 231.425C234.26 231.875 234.128 232.326 233.951 232.803C233.774 233.359 233.597 233.916 233.465 234.472C233.376 234.79 233.288 235.108 233.2 235.453C233.155 235.612 233.111 235.798 233.067 235.957C232.934 236.487 232.758 237.016 232.625 237.547V237.573C232.537 237.891 232.448 238.182 232.36 238.5C231.299 238.553 230.194 238.606 229.133 238.686C228.382 238.739 227.63 238.765 226.835 238.818C226.481 238.845 226.128 238.845 225.774 238.845C225.465 238.845 225.199 238.845 224.89 238.845C224.713 238.845 224.492 238.845 224.315 238.845C224.094 238.845 223.873 238.845 223.652 238.818C223.564 238.818 223.52 238.818 223.431 238.818C223.122 238.871 222.768 238.924 222.503 239.057Z" fill="white" fill-opacity="0.02"/>
<path d="M372.385 274.54C372.385 273.136 372.385 271.731 372.385 270.353C372.208 268.975 373.048 267.253 371.236 266.166C370.485 265.742 369.556 265.451 368.893 265C368.054 264.391 367.346 263.702 366.286 263.172C365.181 262.536 363.678 261.926 362.484 261.158C361.07 259.859 359.346 258.746 357.313 257.792C355.766 256.971 354.926 255.752 353.202 254.983C352.407 254.559 351.567 254.188 350.816 253.738C350.064 253.208 349.49 252.572 348.65 252.095C343.655 249.895 340.296 255.328 337.335 256.944C335.434 257.925 333.975 259.435 332.34 260.601C329.113 262.377 327.655 263.967 325.975 266.352C325.533 266.855 325.047 267.332 324.605 267.836C324.296 268.154 324.251 268.525 324.384 268.869C324.296 269.585 324.34 270.274 324.428 270.989C324.738 273.851 324.959 276.74 324.87 279.602C324.914 283.126 324.826 286.624 324.914 290.149C325.003 291.58 324.826 293.435 327.124 294.309C328.76 294.786 330.616 294.786 332.428 294.786C333.003 294.786 333.578 294.786 334.152 294.786C337.953 294.839 341.755 294.813 345.556 294.786C347.059 294.786 348.561 294.76 350.02 294.76C350.108 294.76 350.153 294.76 350.241 294.786C350.285 294.786 350.374 294.786 350.418 294.786C350.595 294.786 350.727 294.786 350.904 294.76C356.075 294.76 361.203 294.786 366.374 295.051C366.683 295.078 366.993 295.104 367.302 295.104C370.352 295.104 372.12 293.726 372.208 291.845C372.562 286.094 372.341 280.291 372.385 274.54ZM367.965 282.994C367.965 285.14 367.965 287.287 367.965 289.407C367.921 290.414 368.142 291.474 367.612 292.428C365.711 292.348 363.855 292.269 361.954 292.216C361.379 290.122 361.733 288.002 362.042 285.882C362.219 284.531 362.352 283.179 362.529 281.828C362.794 280.45 362.175 279.045 359.611 278.727C357.49 278.436 355.324 278.303 353.202 278.197C352.76 278.144 352.363 278.144 351.921 278.144C349.887 278.144 348.208 278.701 347.987 280.158C347.633 281.43 347.766 282.729 348.031 284.001C348.164 285.352 348.252 286.73 348.296 288.082C348.252 289.433 348.119 290.785 347.987 292.136C347.412 292.136 346.882 292.136 346.307 292.136C340.738 292.163 335.213 292.189 329.644 292.03C328.937 287.207 329.555 282.331 329.334 277.482C329.29 275.309 329.113 273.162 328.892 270.989C328.892 270.035 328.45 268.975 329.379 268.154C331.5 265.689 331.854 264.417 335.522 262.456C336.848 261.688 337.644 260.654 338.837 259.833C339.854 259.197 340.65 258.746 341.622 258.031C343.257 256.891 344.362 255.487 346.175 254.453C347.456 255.752 349.666 256.52 351.346 257.58C352.274 258.296 352.981 259.091 354.175 259.674C355.147 260.204 356.208 260.681 357.136 261.264C357.888 261.794 358.418 262.403 359.169 262.907C360.363 263.702 361.821 264.311 363.192 265.027C364.783 265.981 365.888 267.2 367.877 267.889C368.009 272.977 367.965 277.985 367.965 282.994Z" fill="white" fill-opacity="0.02"/>
</g>
</svg>
