<svg width="28" height="28" viewBox="0 0 28 28" fill="none" xmlns="http://www.w3.org/2000/svg">
<path d="M26.0742 12.6843H1.51562V15.6933H26.0742V12.6843Z" fill="#6B7282"/>
<path d="M14 -0.000244141C6.27027 -0.000244141 0 6.27003 0 13.9998C0 21.7295 6.27027 27.9998 14 27.9998C21.7297 27.9998 28 21.7295 28 13.9998C28 6.27003 21.7297 -0.000244141 14 -0.000244141ZM14 25.7295C7.53153 25.7295 2.27027 20.4682 2.27027 13.9998C2.27027 7.53129 7.53153 2.27003 14 2.27003C20.4685 2.27003 25.7297 7.53129 25.7297 13.9998C25.7297 20.4682 20.4685 25.7295 14 25.7295Z" fill="#798093"/>
<path d="M13.8574 0.720215C6.54209 0.720215 0.578125 6.66616 0.578125 13.9995C0.578125 21.3148 6.52407 27.2788 13.8574 27.2788C21.1907 27.2788 27.1367 21.3328 27.1367 13.9995C27.1367 6.68418 21.1907 0.720215 13.8574 0.720215ZM13.8574 26.7202C6.83038 26.7202 1.11867 21.0085 1.11867 13.9815C1.11867 6.95445 6.83038 1.24274 13.8574 1.24274C20.8844 1.24274 26.5961 6.95445 26.5961 13.9815C26.5961 21.0085 20.8844 26.7202 13.8574 26.7202Z" fill="#9DAED1"/>
<path opacity="0.68" d="M5.82031 22.3242C7.92842 24.3962 10.8113 25.6755 14.0005 25.6755C17.5681 25.6755 20.7572 24.0719 22.9014 21.5494V6.43228C20.7572 3.90975 17.5681 2.30615 14.0005 2.30615C10.8113 2.30615 7.92842 3.58543 5.82031 5.6575V22.3242Z" fill="#BF0930"/>
<path d="M14.0008 24.5945C8.16301 24.5945 3.40625 19.8377 3.40625 13.9999C3.40625 8.16203 8.16301 3.40527 14.0008 3.40527C19.8387 3.40527 24.5954 8.16203 24.5954 13.9999C24.5954 19.8377 19.8387 24.5945 14.0008 24.5945Z" fill="#B0B9CC"/>
<path d="M17.752 22.0699C22.2087 19.9959 24.1403 14.7017 22.0663 10.245C19.9923 5.78832 14.6981 3.85676 10.2414 5.93075C5.78474 8.00474 3.85318 13.2989 5.92716 17.7556C8.00115 22.2123 13.2953 24.1439 17.752 22.0699Z" fill="#9EA8BA"/>
<g opacity="0.43">
<path d="M19.1544 6.73853L8.10938 20.6664C8.36163 20.8827 8.61388 21.0989 8.88415 21.2791L19.9292 7.36916C19.6769 7.13492 19.4247 6.93672 19.1544 6.73853Z" fill="#B0B9CC"/>
<path d="M21.0083 8.52197L10.2695 22.0715C10.4317 22.1436 10.5758 22.2157 10.738 22.2697L21.3146 8.9364C21.2245 8.79225 21.1164 8.66612 21.0083 8.52197Z" fill="#B0B9CC"/>
<path d="M17.0451 5.63892L6.55859 18.8641C6.64868 19.0083 6.75679 19.1524 6.84688 19.2966L17.5316 5.83712C17.3694 5.74703 17.2072 5.69297 17.0451 5.63892Z" fill="#B0B9CC"/>
<path d="M14.7024 5.1167L5.53125 16.6843C5.62134 16.9545 5.72945 17.2428 5.83756 17.4951L15.5673 5.2248C15.279 5.18877 14.9907 5.15274 14.7024 5.1167Z" fill="#B0B9CC"/>
</g>
<path d="M5.82228 14.0002C5.82228 9.20736 9.62408 5.29745 14.3628 5.09926C9.29976 4.90106 5.10156 8.95511 5.10156 14.0002C5.10156 19.0452 9.29976 23.0993 14.3628 22.9011C9.62408 22.7029 5.82228 18.7749 5.82228 14.0002Z" fill="#8A99AD"/>
<path d="M13.476 16.991H17.1697V18.8108H10.5391V16.9189C11.6922 15.9279 14.5931 13.5135 14.5931 12C14.5931 11.2433 14.0886 10.7207 13.2598 10.7207C12.431 10.7207 11.5841 11.0451 10.8454 11.4234L10.7733 9.40541C15.7823 7.42343 18.5391 10.5946 16.1787 14.0721C15.6201 14.9369 14.7192 15.9099 13.476 16.991Z" fill="#BAC6D8"/>
<path d="M13.476 16.991H17.1697V18.8108H10.5391V16.9189C11.6922 15.9279 14.5931 13.5135 14.5931 12C14.5931 11.2433 14.0886 10.7207 13.2598 10.7207C12.431 10.7207 11.5841 11.0451 10.8454 11.4234L10.7733 9.40541C15.7823 7.42343 18.5391 10.5946 16.1787 14.0721C15.6201 14.9369 14.7192 15.9099 13.476 16.991Z" fill="#BAC6D8"/>
<path d="M10.1797 19.171V16.7565L10.45 16.5223C11.477 15.6394 14.2157 13.2971 14.2157 12.0178C14.2157 11.4412 13.8554 11.0989 13.2428 11.0989C12.6121 11.0989 11.8734 11.3151 10.9905 11.7656L10.486 12.0178L10.3959 9.18898L10.6301 9.09889C11.6932 8.68448 12.7202 8.46826 13.6391 8.46826C15.2067 8.46826 16.45 9.0989 17.0446 10.198C17.6572 11.3692 17.459 12.8647 16.468 14.3061C15.9995 15.0088 15.2968 15.7836 14.3959 16.6304H17.513V19.171H10.1797Z" fill="#798093"/>
<path d="M13.476 16.991H17.1697V18.8108H10.5391V16.9189C11.6922 15.9279 14.5931 13.5135 14.5931 12C14.5931 11.2433 14.0886 10.7207 13.2598 10.7207C12.431 10.7207 11.5841 11.0451 10.8454 11.4234L10.7733 9.40541C15.7823 7.42343 18.5391 10.5946 16.1787 14.0721C15.6201 14.9369 14.7192 15.9099 13.476 16.991Z" fill="white"/>
<path d="M12.7223 9.27956C13.5871 9.09938 14.9205 9.04533 15.5691 9.56785C16.1997 9.98227 16.9385 11.73 15.5691 13.6399C14.8124 14.685 13.5511 15.9462 12.5781 16.7931C13.407 15.9462 14.7583 14.5228 15.443 13.5498C16.1277 12.5769 16.452 11.2615 15.9115 10.2165C15.5871 9.5138 14.9385 9.31559 14.1637 9.24352C13.6952 9.18947 13.2088 9.20749 12.7223 9.27956Z" fill="white"/>
<path d="M4.02074 15.1351C3.60632 12.2162 4.50722 9.26122 6.4892 7.08104C6.56127 6.99095 6.70542 7.11708 6.61533 7.20717C4.66938 9.35131 3.7865 12.2342 4.1829 15.1171C4.21893 15.2252 4.03876 15.2612 4.02074 15.1351Z" fill="#CEDDF4"/>
<path d="M5.20755 18.6118C4.73908 17.801 4.39674 16.9362 4.18052 16.0353C4.14448 15.9272 4.32466 15.8731 4.3607 15.9992C4.84719 18.0893 5.54989 18.5398 5.33367 18.6659C5.31565 18.6479 5.22557 18.6479 5.20755 18.6118Z" fill="#CEDDF4"/>
<path d="M13.7996 23.603C10.5744 23.603 7.54737 22.0174 5.69152 19.3688C5.61945 19.2787 5.76359 19.1706 5.83566 19.2607C7.65548 21.8553 10.6285 23.4229 13.7996 23.4229C13.9077 23.4229 13.9077 23.603 13.7996 23.603Z" fill="#CEDDF4"/>
<path d="M20.144 21.0628C24.6845 17.1168 24.5945 9.99972 19.8737 6.1799C19.7836 6.10783 19.8918 5.96368 19.9818 6.03576C24.8107 9.92765 24.8827 17.1709 20.2701 21.1889C20.18 21.279 20.0539 21.1349 20.144 21.0628Z" fill="#CEDDF4"/>
<path d="M7.37084 6.21599C7.89336 5.76554 8.46994 5.36914 9.08255 5.04481C9.19066 4.99076 9.28075 5.15293 9.17264 5.20698C8.57804 5.53131 8.00146 5.9277 7.49696 6.36013C7.40687 6.4322 7.28075 6.30608 7.37084 6.21599Z" fill="#CEDDF4"/>
</svg>
