<svg width="28" height="28" viewBox="0 0 28 28" fill="none" xmlns="http://www.w3.org/2000/svg">
<path d="M26.0742 12.7026H1.51562V15.7116H26.0742V12.7026Z" fill="#D67205"/>
<path d="M14 0C6.27026 0 0 6.27027 0 14C0 21.7297 6.27026 28 14 28C21.7297 28 28 21.7297 28 14C28 6.27027 21.7297 0 14 0ZM14 25.7477C7.53152 25.7477 2.27027 20.4865 2.27027 14.018C2.27027 7.54955 7.53152 2.28829 14 2.28829C20.4685 2.28829 25.7297 7.54955 25.7297 14.018C25.7297 20.4865 20.4685 25.7477 14 25.7477Z" fill="#FF8500"/>
<path d="M14.0008 0.846924C6.73955 0.846924 0.847656 6.75683 0.847656 14.0001C0.847656 21.2613 6.75757 27.1532 14.0008 27.1532C21.2621 27.1532 27.154 21.2433 27.154 14.0001C27.154 6.75683 21.2441 0.846924 14.0008 0.846924ZM14.0008 26.6307C7.04586 26.6307 1.3882 20.973 1.3882 14.0181C1.3882 7.06313 7.04586 1.40548 14.0008 1.40548C20.9558 1.40548 26.6134 7.06313 26.6134 14.0181C26.6134 20.973 20.9558 26.6307 14.0008 26.6307Z" fill="#FFAF57"/>
<path opacity="0.68" d="M5.82031 22.3422C7.92842 24.4143 10.8113 25.6936 14.0005 25.6936C17.5681 25.6936 20.7573 24.09 22.9014 21.5675V6.45034C20.7573 3.92782 17.5681 2.32422 14.0005 2.32422C10.8113 2.32422 7.92842 3.60349 5.82031 5.67557V22.3422Z" fill="#BF0930"/>
<path d="M14.0008 24.6128C8.16301 24.6128 3.40625 19.856 3.40625 14.0182C3.40625 8.18034 8.16301 3.42358 14.0008 3.42358C19.8387 3.42358 24.5955 8.18034 24.5955 14.0182C24.5955 19.856 19.8387 24.6128 14.0008 24.6128Z" fill="#ED8A29"/>
<path d="M14.0025 22.9009C9.10156 22.9009 5.10156 18.9009 5.10156 14C5.10156 9.09912 9.10156 5.09912 14.0025 5.09912C18.9034 5.09912 22.9034 9.09912 22.9034 14C22.9034 18.9189 18.9034 22.9009 14.0025 22.9009Z" fill="#FF952C"/>
<g opacity="0.31">
<path d="M13.943 22.9007L5.18624 12.6484C5.11417 13.0629 5.09614 13.4953 5.07812 13.9097L12.6637 22.7926C13.0962 22.8647 13.5106 22.9007 13.943 22.9007Z" fill="#DD722A"/>
<path d="M22.2836 17.2426L12.1034 5.3147C11.7791 5.38677 11.4547 5.47686 11.1484 5.58497L21.8872 18.1435C22.0313 17.8552 22.1574 17.5489 22.2836 17.2426Z" fill="#DD722A"/>
<path d="M22.8606 14.8284L14.5723 5.13471C14.3741 5.11669 14.1939 5.1167 13.9957 5.1167C13.9417 5.1167 13.9056 5.1167 13.8516 5.1167L22.7705 15.5491C22.8065 15.2969 22.8245 15.0626 22.8606 14.8284Z" fill="#DD722A"/>
<path d="M19.2926 21.153L7.76105 7.65747C7.54484 7.87369 7.34664 8.08991 7.14844 8.32414L18.5358 21.6575C18.8061 21.4953 19.0584 21.3331 19.2926 21.153Z" fill="#DD722A"/>
<path d="M17.5831 22.1439L6.50197 9.1709C6.21368 9.60333 5.97945 10.0538 5.78125 10.5403L16.1056 22.6304C16.6281 22.5223 17.1146 22.3601 17.5831 22.1439Z" fill="#DD722A"/>
<path d="M21.1505 19.2969L9.88929 6.10767C9.45685 6.3419 9.04244 6.59415 8.66406 6.88244L20.1956 20.3779C20.5379 20.0536 20.8623 19.6933 21.1505 19.2969Z" fill="#DD722A"/>
</g>
<path d="M5.82228 14.0002C5.82228 9.20736 9.62408 5.29745 14.3628 5.09926C9.29976 4.90106 5.10156 8.95511 5.10156 14.0002C5.10156 19.0452 9.29976 23.0993 14.3628 22.9011C9.62408 22.7029 5.82228 18.7929 5.82228 14.0002Z" fill="#DD722A"/>
<path d="M6.36119 20.2703C3.78461 17.1352 3.38821 12.7388 5.35218 9.22529C5.46028 9.00907 5.78461 9.18925 5.65848 9.40547C3.76659 12.7929 4.14498 17.0271 6.63146 20.0361C6.79362 20.2163 6.50534 20.4505 6.36119 20.2703Z" fill="#FFAF57"/>
<path d="M8.55866 22.2344C8.36046 22.1082 8.55866 21.8019 8.75685 21.9281C11.3875 23.6578 14.6848 23.9461 17.5316 22.7749C17.7478 22.6848 17.892 23.0272 17.6758 23.1172C14.7028 24.3245 11.2794 24.0362 8.55866 22.2344Z" fill="#FFAF57"/>
<path d="M19.9115 21.3694C23.0106 18.8468 24.1277 14.7928 22.9926 11.1711C22.9205 10.9369 23.2629 10.8288 23.335 11.063C24.5061 14.8108 23.371 19.027 20.1277 21.6396C19.9476 21.8018 19.7314 21.5315 19.9115 21.3694Z" fill="#FFAF57"/>
<path d="M21.5153 8.28835C17.9297 3.56763 11.0288 3.26132 7.04684 7.53159C6.88467 7.71177 6.6144 7.45952 6.77657 7.27934C10.8847 2.90096 18.0559 3.13519 21.8036 8.07213C21.9297 8.27033 21.6594 8.48655 21.5153 8.28835Z" fill="#FFAF57"/>
<path d="M10.8273 19.0811L10.5391 19.009L10.7373 16.1081C10.9355 16.1802 11.8904 16.8469 13.3499 16.8469C14.0706 16.8469 14.9715 16.6306 14.9895 15.9279C15.0075 14.9189 13.5301 15.1892 12.2147 15.1351V12.6847H13.6742C15.8544 12.6847 15.2598 10.1261 11.494 11.5676L11.0436 11.7478L10.8814 9.11713C11.0436 9.06308 11.6922 8.84685 12.6472 8.70271C18.6111 7.80181 19.0616 12.4685 16.8994 13.8018C17.7823 14.2883 18.2508 15.0811 18.2508 16.1261C18.2147 19.3333 13.9264 19.9279 10.8273 19.0811Z" fill="#DD542F"/>
<path d="M15.945 13.8197C17.1342 14.144 17.8549 14.8827 17.8549 16.126C17.8549 19.0809 13.7108 19.5134 10.918 18.7386L11.0621 16.6665C12.1432 17.2251 13.909 17.4413 14.8099 16.8467C15.5486 16.3602 15.4765 15.4413 14.936 15.0629C14.3414 14.6485 13.4225 14.8107 12.5576 14.7746V13.0269H13.6567C15.8009 13.0269 15.8549 10.7746 13.6027 10.7746C12.8459 10.7746 12.0711 10.9368 11.3504 11.2071L11.2423 9.35121C11.7108 9.20706 12.1972 9.09896 12.6837 9.02688C18.0171 8.23409 18.2153 11.7836 17.2423 12.9728C16.954 13.3692 16.5216 13.6395 15.945 13.8197Z" fill="white"/>
<path d="M12.7031 9.56766C14.3788 9.2073 16.2887 9.02712 16.7932 10.6668C17.0815 11.6577 16.4689 12.6307 15.586 12.937C16.8112 12.3244 17.0635 10.8289 16.1626 9.98207C15.3698 9.2073 13.7482 9.45955 12.7031 9.56766Z" fill="white"/>
<path d="M16.306 15.4233C17.0628 17.081 15.9997 19.4774 11.5312 18.2161C13.297 18.4684 15.5132 18.7567 16.252 17.1351C16.5042 16.5945 16.4862 15.9819 16.306 15.4233Z" fill="white"/>
</svg>
