<svg width="24" height="24" viewBox="0 0 24 24" fill="none" xmlns="http://www.w3.org/2000/svg">
<rect width="24" height="24" rx="6" fill="none"/>
<g clip-path="url(#clip0_1634_6277)">
<path d="M4.85577 13.4629V11.8728C4.88731 11.8728 4.91475 11.8728 4.94193 11.8728C5.34834 11.8728 5.755 11.875 6.16141 11.8717C6.37372 11.87 6.58475 11.8558 6.79193 11.7994C7.20603 11.687 7.51449 11.4433 7.72244 11.0748C7.93654 10.6961 7.97218 10.2887 7.91039 9.86641C7.87141 9.60017 7.77295 9.36007 7.61167 9.14408C7.38834 8.84484 7.07911 8.68621 6.71782 8.6225C6.41603 8.56921 6.11398 8.57606 5.81577 8.65702C5.46321 8.75296 5.1968 8.96235 5.005 9.26565C4.80039 9.58875 4.70141 9.94687 4.69885 10.3245C4.69039 11.6796 4.69039 13.0347 4.68834 14.3895C4.68705 15.1804 4.68782 15.9712 4.68782 16.7621C4.68782 16.7872 4.68782 16.8126 4.68782 16.8431H3.00449C3.00321 16.819 3.00116 16.7943 3.00116 16.7697C3.00116 14.6999 2.99911 12.6304 3.00218 10.5606C3.00295 10.0789 3.0527 9.60271 3.20475 9.14002C3.40321 8.53621 3.74141 8.03113 4.25193 7.64281C4.715 7.29103 5.2409 7.0989 5.81911 7.03164C6.195 6.98799 6.56936 6.99002 6.94321 7.03672C7.55705 7.11362 8.12244 7.31489 8.59808 7.71921C8.96654 8.0324 9.24859 8.41083 9.43526 8.85753C9.62859 9.31971 9.69757 9.8022 9.69141 10.2994C9.68552 10.7834 9.60064 11.2499 9.39705 11.6915C9.17757 12.1679 8.85321 12.5545 8.39834 12.8309C7.97449 13.0882 7.52193 13.2715 7.035 13.3695C6.73936 13.4289 6.44064 13.4626 6.13859 13.4629C5.73218 13.4634 5.32552 13.4631 4.91911 13.4631C4.90064 13.4631 4.88218 13.4631 4.85577 13.4631V13.4629Z" fill="white"/>
<path d="M14.9852 13.3494C14.9908 12.7982 15.1188 12.2276 15.4167 11.7035C15.5226 11.5172 15.6488 11.3393 15.7867 11.1748C16.0152 10.902 16.2744 10.6581 16.5757 10.4621C16.9329 10.2299 17.3211 10.073 17.7401 9.99081C18.0906 9.92177 18.4437 9.90528 18.7993 9.93548C19.3662 9.98345 19.8865 10.1654 20.3629 10.4713C20.8749 10.8002 21.2744 11.2327 21.5611 11.7657C21.7726 12.1588 21.9039 12.5763 21.9565 13.02C22.0072 13.4472 21.9862 13.8697 21.8901 14.2873C21.7726 14.7987 21.5506 15.2634 21.2208 15.6761C20.7283 16.2926 20.0949 16.6951 19.3262 16.8837C18.8852 16.9918 18.4372 17.0083 17.9854 16.9484C17.3865 16.8692 16.8462 16.6474 16.3685 16.2865C15.8067 15.8619 15.4131 15.3124 15.1813 14.6494C15.0396 14.2433 14.9747 13.8263 14.9849 13.3494H14.9852ZM16.6203 13.4672C16.6219 13.4974 16.6242 13.5436 16.626 13.5898C16.6424 13.9921 16.7393 14.3705 16.9734 14.7055C17.1567 14.9677 17.3931 15.1692 17.6924 15.2923C18.0596 15.4433 18.4413 15.4753 18.8319 15.4154C19.4065 15.3274 19.8296 15.0268 20.1026 14.52C20.2603 14.2274 20.3298 13.9126 20.3442 13.5827C20.366 13.0855 20.2783 12.6159 19.9906 12.1984C19.7721 11.8814 19.4803 11.6568 19.1039 11.5469C18.7803 11.4525 18.4521 11.4378 18.1203 11.4895C17.5388 11.5804 17.1198 11.8951 16.8485 12.4063C16.6752 12.7327 16.6237 13.0875 16.6198 13.4672H16.6203Z" fill="white"/>
<path d="M11.9456 16.8459H10.3433C10.3433 16.8208 10.3433 16.7965 10.3433 16.7721C10.3433 15.5165 10.3435 14.2612 10.3433 13.0056C10.3433 12.5655 10.3763 12.1292 10.4848 11.7005C10.613 11.1937 10.8661 10.7701 11.3151 10.4769C11.5517 10.3223 11.8158 10.2333 12.0858 10.1571C12.3143 10.0926 12.5484 10.0657 12.784 10.0632C13.4169 10.0564 14.0499 10.0566 14.683 10.0543C14.6989 10.0543 14.7148 10.0569 14.7348 10.0584V11.5891C14.7084 11.5891 14.6815 11.5891 14.6545 11.5891C14.101 11.5891 13.5474 11.5855 12.9938 11.5914C12.8412 11.5929 12.6858 11.6097 12.5374 11.6434C12.2333 11.7127 12.0733 11.919 12.0135 12.217C11.9576 12.4954 11.9479 12.7772 11.9471 13.0584C11.9438 14.2883 11.9456 15.5185 11.9456 16.7485C11.9456 16.7782 11.9456 16.8081 11.9456 16.8454V16.8459Z" fill="white"/>
</g>
<defs>
<clipPath id="clip0_1634_6277">
<rect width="19" height="10" fill="white" transform="translate(3 7)"/>
</clipPath>
</defs>
</svg>
